<?xml version="1.0" standalone="no"?>
<!DOCTYPE svg PUBLIC "-//W3C//DTD SVG 1.1//EN" "http://www.w3.org/Graphics/SVG/1.1/DTD/svg11.dtd" >
<svg>
<metadata>
Created by FontForge 20110222 at Fri Nov 15 04:22:51 2013
 By www-data
2013 Iconian Fonts - www.iconian.com
</metadata>
<defs>
<font id="AirstrikeCondensed" horiz-adv-x="604" >
  <font-face 
    font-family="Airstrike Condensed"
    font-weight="400"
    font-stretch="condensed"
    units-per-em="1000"
    panose-1="0 0 0 0 0 0 0 0 0 0"
    ascent="800"
    descent="-200"
    x-height="530"
    cap-height="530"
    bbox="-124 -142 1059 723"
    underline-thickness="50"
    underline-position="-75"
    unicode-range="U+0020-20AC"
  />
    <missing-glyph />
    <glyph glyph-name="space" unicode=" " horiz-adv-x="244" 
 />
    <glyph glyph-name="space" unicode="&#xa0;" horiz-adv-x="244" 
 />
    <glyph glyph-name="FL0021h" unicode="!" horiz-adv-x="198" 
d="M72 171h154l104 359h-153zM57 70q-2 -5 -2.5 -10.5t-0.5 -12.5q0 -21 11.5 -34t32.5 -13q12 0 25 5.5t23 14.5q17 15 26.5 36t9.5 38q0 20 -11.5 33.5t-32.5 13.5q-26 0 -48.5 -21t-32.5 -50z" />
    <glyph glyph-name="FL0022h" unicode="&#x22;" horiz-adv-x="261" 
d="M264 430l10 37q8 26 27.5 45t40.5 19q17 0 26.5 -11.5t9.5 -29.5q0 -15 -4 -23l-10 -37q-4 -13 -13.5 -28.5t-21 -29t-22.5 -23t-17 -9.5h-7q-13 0 -17 18t-4 38v18q0 9 2 16zM148 430l10 37q8 26 27.5 45t40.5 19q17 0 26.5 -11.5t9.5 -29.5q0 -15 -4 -23l-10 -37
q-4 -13 -13.5 -28.5t-21 -29t-22.5 -23t-17 -9.5h-7q-13 0 -17 18t-4 38v18q0 9 2 16z" />
    <glyph glyph-name="FL0023h" unicode="#" horiz-adv-x="598" 
d="M115 0l30 102h-101l114 135h26l15 52h-101l115 135h25l32 106h153l-31 -106h62l31 106h153l-31 -106h99l-114 -135h-24l-15 -52h99l-114 -135h-24l-30 -102h-154l30 102h-62l-29 -102h-154zM414 289h-61l-15 -52h61z" />
    <glyph glyph-name="FL0024h" unicode="$" horiz-adv-x="528" 
d="M176 -141l41 141h-186q4 10 16.5 32t26.5 44.5t25.5 40t14.5 17.5h142l18 65h-96q-18 0 -28 8t-15.5 21t-7 30.5t-1.5 36.5v58q0 24 11 54.5t29 58t40 46t45 18.5h120l40 139h101l-40 -139h187q-19 -34 -42 -68t-52 -68h-133l-18 -65h41q25 0 43.5 -15.5t30.5 -39
t17.5 -50.5t5.5 -50v-6q0 -26 -9.5 -55.5t-25.5 -54.5t-36 -41.5t-42 -16.5h-121l-41 -141h-101zM331 394h-30q-9 0 -15.5 -15t-6.5 -24v-5q0 -1 3 -4.5t5 -5.5q3 -4 9 -7.5t7 -3.5h10zM402 174q0 8 -2 16.5t-9 8.5h-16l-18 -65h29q12 0 14 9t2 19v12z" />
    <glyph glyph-name="FL0025h" unicode="%" horiz-adv-x="630" 
d="M68 0h137l514 530h-138zM409 408q5 33 -0.5 56t-18.5 38t-32.5 21.5t-43.5 6.5h-53q-18 0 -37 -10.5t-35 -27.5t-28.5 -38.5t-18.5 -43.5q-2 -6 -3 -12l-2 -12q-4 -36 2 -59.5t20 -37t34.5 -19t44.5 -5.5h40q21 0 40.5 10.5t36.5 27.5t30 38.5t19 43.5l3 11q2 8 2 12z
M225 397l5 16q6 14 17.5 26t22.5 12h24q14 0 19.5 -9.5t5.5 -23.5q0 -12 -1 -15l-2 -7q-1 -3 -1.5 -5t-1.5 -4q-7 -14 -20.5 -26t-20.5 -12h-21q-11 0 -19.5 16.5t-6.5 31.5zM652 143q9 66 -19 94t-77 28h-53q-18 0 -36.5 -10.5t-34.5 -27.5t-28.5 -38.5t-18.5 -43.5
q-2 -6 -3 -12l-2 -12q-4 -36 2.5 -59.5t20 -37t34 -19t44.5 -5.5h40q21 0 40.5 10.5t36.5 27.5t30 38.5t19 43.5l3 11q1 5 1.5 8t0.5 4zM468 132l5 16q7 14 18 26t22 12h24q15 0 20 -9.5t5 -23.5q0 -12 -1 -15l-2 -7q-1 -2 -1.5 -4t-2.5 -5q-7 -14 -19.5 -26t-20.5 -12h-21
q-11 0 -19.5 16.5t-6.5 31.5z" />
    <glyph glyph-name="FL0026h" unicode="&#x26;" horiz-adv-x="640" 
d="M608 197h-26q-2 -13 -4.5 -26.5t-7.5 -24.5l-4 -15q-12 -35 -23.5 -60t-30 -40.5t-47.5 -23t-76 -7.5h-227q-66 0 -89.5 14.5t-23.5 46.5q0 14 3.5 31.5t8.5 38.5l4 15q4 13 10.5 30.5t14.5 30.5q13 20 27 31t22 19q-9 6 -12.5 20.5t-3.5 32.5q0 23 4.5 45.5t10.5 37.5
l5 16q6 20 15.5 41.5t28 39t49.5 29t80 11.5h293q-20 -35 -42 -69t-48 -67h-193q-5 0 -15 -5.5t-14 -16.5l-45 -156l107 116h363zM378 136q1 0 13 8.5t17 13.5l1 2t2 3l2 5q2 3 5 15.5t3 19.5h-174l-12 -45q2 -5 7.5 -13.5t7.5 -8.5h128z" />
    <glyph glyph-name="FL0027h" unicode="'" horiz-adv-x="145" 
d="M148 430l10 37q8 26 27.5 45t40.5 19q17 0 26.5 -11.5t9.5 -29.5q0 -15 -4 -23l-10 -37q-4 -13 -13.5 -28.5t-21 -29t-22.5 -23t-17 -9.5h-7q-13 0 -17 18t-4 38v18q0 9 2 16z" />
    <glyph glyph-name="FL0028h" unicode="(" horiz-adv-x="328" 
d="M95 206v-2q0 -71 22.5 -116t54 -71t64 -38t53.5 -16q6 15 12 31.5t11.5 32.5t9 29.5t3.5 22.5v6q-6 9 -19.5 24t-27.5 33t-24.5 38t-10.5 40v1q0 6 4 22.5t9 30.5l6 24q5 17 14 37.5t20.5 38.5t24.5 30t26 12h14q29 30 52.5 63.5t46.5 71.5h-136q-28 0 -56 -16.5
t-53.5 -44t-47 -63t-38 -74t-25.5 -76.5t-9 -70v-1z" />
    <glyph glyph-name="FL0029h" unicode=")" horiz-adv-x="327" 
d="M382 308v3q0 71 -22.5 115.5t-54 71t-64 37.5t-52.5 16q-6 -14 -13 -31t-12 -34t-8.5 -31.5t-3.5 -22.5v-6q12 -9 26 -23.5t26.5 -32.5t21 -37.5t8.5 -38.5q-1 -6 -5.5 -25t-9.5 -36l-5 -17q-5 -17 -14 -37.5t-20.5 -38.5t-24.5 -30t-25 -12h-14q-29 -30 -52 -63.5
t-46 -71.5h136q28 0 56 16.5t53 44t47 63t38 74t25 76.5t9 70v1z" />
    <glyph glyph-name="FL0419h" unicode="*" horiz-adv-x="197" 
d="M231 398l-5 48l-34 -48l-38 55l39 33l-34 11l43 77l23 -25l9 46h70l-19 -46l41 23v-77l-44 -9l19 -35z" />
    <glyph glyph-name="FL002Bh" unicode="+" horiz-adv-x="369" 
d="M162 98l28 97h-119l115 135h43l30 103h108l-30 -103h113l-114 -135h-38l-28 -97h-108z" />
    <glyph glyph-name="FL002Ch" unicode="," horiz-adv-x="166" 
d="M30 28l12 42q10 29 33 50t49 21q21 0 32.5 -13.5t11.5 -33.5q0 -5 -1 -10.5t-3 -13.5l-12 -42q-4 -14 -15 -31.5t-24.5 -32.5t-27 -25.5t-20.5 -10.5h-7q-9 0 -14.5 6.5t-8.5 17t-4 23t-1 24.5v15v14z" />
    <glyph glyph-name="FL002Dh" unicode="-" horiz-adv-x="289" 
d="M256 195l114 135h-184l-115 -135h185z" />
    <glyph glyph-name="FL002Eh" unicode="." horiz-adv-x="166" 
d="M42 70q-3 -9 -3 -23q0 -21 11.5 -34t32.5 -13q13 0 25.5 5.5t23.5 14.5q17 15 26.5 36t9.5 38q0 20 -11.5 33.5t-32.5 13.5q-26 0 -49 -21t-33 -50z" />
    <glyph glyph-name="FL002Fh" unicode="/" horiz-adv-x="526" 
d="M185 0h-171l480 530h172z" />
    <glyph glyph-name="FL0030h" unicode="0" horiz-adv-x="577" 
d="M638 287q2 15 3 28.5t1 26.5q0 50 -14.5 86t-40.5 58.5t-62 33t-79 10.5h-106q-42 0 -84 -26.5t-76 -68.5t-57 -93t-29 -99q-2 -14 -3 -27t-1 -25q0 -56 15.5 -93t43 -58.5t65 -30.5t81.5 -9h80q48 0 92.5 26.5t80.5 68.5t60 93t30 99zM244 257q1 8 4 18.5t7 22.5
q7 17 19.5 34.5t27 31.5t29.5 22.5t27 8.5h65q20 0 32.5 -7.5t19.5 -20t9.5 -28.5t2.5 -32q0 -9 -0.5 -17.5t-0.5 -16.5q0 1 -2 -9l-3 -10q-2 -9 -9 -22q-8 -17 -21.5 -34.5t-29.5 -31.5t-31 -22.5t-24 -8.5h-52q-15 0 -27.5 10t-22.5 26t-15.5 35.5t-5.5 37.5v6q0 6 1 7z
" />
    <glyph glyph-name="FL0031h" unicode="1" horiz-adv-x="260" 
d="M238 0l154 530h-164q-11 -9 -26.5 -29.5t-30.5 -42.5t-25.5 -40t-11.5 -22v-1h65l-115 -395h154z" />
    <glyph glyph-name="FL0032h" unicode="2" horiz-adv-x="529" 
d="M212 141q0 -7 9 -7h324l-9.5 -15.5t-23.5 -36.5t-30 -44t-28 -38h-364q-24 0 -34.5 18.5t-10.5 45.5q0 25 8 53t22 54q13 22 36 49t49.5 50.5t53.5 39t48 15.5h152q1 0 11 5.5t15 9.5q3 2 8 5.5t5 4.5l3 5q8 9 8 27q0 12 -7 12h-319q8 16 20 34.5t25 36.5t26 34.5
t24 30.5h353q25 0 36.5 -22t11.5 -54q0 -55 -26 -102q-14 -25 -38 -52.5t-51.5 -51t-55.5 -38.5t-52 -15h-160q-7 0 -13 -6.5t-11 -14.5z" />
    <glyph glyph-name="FL0033h" unicode="3" horiz-adv-x="537" 
d="M104 136q-23 -29 -42 -63.5t-40 -72.5h353q47 0 76.5 7.5t48 23t30 40.5t23.5 60l3 11q5 13 9 31.5t4 32.5q-1 20 -9 31t-11 19q11 6 22 19t19.5 30.5t14 37t5.5 38.5v2q0 20 -5 45.5t-14.5 48t-24.5 38t-36 15.5h-308q-25 -32 -44.5 -66.5t-36.5 -69.5h299q2 0 8 -8.5
t8 -13.5l0.5 -2t1.5 -3l-2 -5q-1 -3 -4 -8.5t-6 -11.5t-6 -10.5l-3 -4.5h-128l-123 -135h216q0 -7 -0.5 -14t-2.5 -10l-1 -5q-1 -1 -2.5 -3l-1.5 -2q-2 -3 -6.5 -6.5t-9.5 -7t-9 -6l-4 -2.5h-261z" />
    <glyph glyph-name="FL0034h" unicode="4" horiz-adv-x="523" 
d="M501 0h-154l86 294l-83 -104h-272l99 340h152l-60 -205h173l60 205h153z" />
    <glyph glyph-name="FL0035h" unicode="5" horiz-adv-x="523" 
d="M381 134h-272q-3 0 -14.5 -17.5t-25.5 -40t-26.5 -44.5t-16.5 -32h408q21 0 41.5 16.5t36 41.5t25 54.5t9.5 55.5v4q0 22 -7.5 49t-20 50t-30 38.5t-38.5 15.5h-152q-1 0 -7 5.5t-9 9.5q-2 2 -5 5.5t-3 4.5v5l11 39h274q29 34 52.5 68t42.5 68h-481l-52 -177
q-1 -5 -1.5 -9.5t-0.5 -9.5q0 -24 10.5 -49t26 -45t34.5 -32.5t36 -12.5h160q6 0 8.5 -6.5t2.5 -14.5q0 -19 -16 -40z" />
    <glyph glyph-name="FL0036h" unicode="6" horiz-adv-x="509" 
d="M547 195q2 13 3.5 24t1.5 22q0 35 -15 57.5t-51 31.5h-217q12 26 28.5 45.5t36.5 19.5h208q29 30 52.5 63.5t46.5 71.5h-331q-42 0 -80 -26.5t-66.5 -67.5t-45 -92t-16.5 -99v-2q0 -72 23 -119t60 -74.5t84.5 -38.5t96.5 -11q30 0 58 17t52 45t42 63t29 70zM367 203
q15 -3 18.5 -11.5t5.5 -17.5l-20 -38h-46q-17 0 -28.5 17.5t-22.5 40.5l-5 9h98z" />
    <glyph glyph-name="FL0037h" unicode="7" horiz-adv-x="489" 
d="M45 0h161l423 530h-401q-11 -9 -26.5 -29.5t-30.5 -42.5t-25.5 -40t-11.5 -22v-1h215z" />
    <glyph glyph-name="FL0038h" unicode="8" horiz-adv-x="562" 
d="M138 393q-6 -15 -10.5 -37.5t-4.5 -45.5q0 -18 3.5 -32.5t12.5 -20.5q-8 -8 -22 -19t-27 -31q-8 -13 -14.5 -30.5t-10.5 -30.5l-4 -15q-5 -21 -8.5 -38.5t-3.5 -31.5q0 -32 23.5 -46.5t89.5 -14.5h238q47 0 76.5 7.5t48 23t30 40.5t23.5 60l5 20q5 12 8 26.5t3 25.5v3
q-1 20 -9 31t-11 19q17 9 31.5 32t22.5 51q7 21 7 39v14q0 21 -5 45t-15 44.5t-25 34.5t-36 14h-238q-49 0 -80 -11.5t-49.5 -29t-28 -39t-15.5 -41.5zM297 372q4 11 14 16.5t15 5.5h139q2 -1 8 -9t8 -13v-10q-2 -6 -8.5 -18t-8.5 -12h-105l-107 -116zM250 136
q-2 0 -7.5 8.5t-7.5 13.5l1 3q0 1 0.5 1.5t0.5 1.5l-1 2l11 37h185q0 -7 -3 -19.5t-5 -15.5l-2 -5q0 -1 -1.5 -3l-1.5 -2q-2 -3 -9.5 -8.5t-13 -9t-6.5 -4.5h-140z" />
    <glyph glyph-name="FL0039h" unicode="9" horiz-adv-x="509" 
d="M116 335q-5 -28 -5 -46q0 -35 15 -57.5t51 -31.5h217q-12 -26 -28.5 -45.5t-36.5 -19.5h-208q-29 -30 -52 -63.5t-47 -71.5h331q41 0 78.5 26.5t66.5 67.5t46 91.5t17 98.5v3q0 71 -10 118t-38.5 74.5t-79 39t-130.5 11.5h-6q-30 0 -58 -17.5t-52 -45t-42.5 -62.5
t-28.5 -70zM296 327q-17 3 -19.5 11.5t-4.5 17.5l19 38h47q17 0 29 -18.5t23 -41.5l4 -7h-98z" />
    <glyph glyph-name="FL003Ah" unicode=":" horiz-adv-x="167" 
d="M43 70q-3 -9 -3 -23q0 -21 11.5 -34t32.5 -13q13 0 25.5 5.5t23.5 14.5q17 15 26.5 36t9.5 38q0 20 -11.5 33.5t-32.5 13.5q-26 0 -49 -21t-33 -50zM118 331q-3 -9 -3 -23q0 -21 11.5 -34t32.5 -13q13 0 25.5 5.5t23.5 14.5q17 15 26.5 36t9.5 38q0 20 -11.5 33.5
t-32.5 13.5q-26 0 -49 -21t-33 -50z" />
    <glyph glyph-name="FL003Bh" unicode=";" horiz-adv-x="167" 
d="M118 331q10 29 33 50t49 21q21 0 32.5 -13.5t11.5 -33.5q0 -9 -4 -24t-13 -28q-12 -18 -30 -30t-38 -12q-21 0 -32.5 13t-11.5 34q0 14 3 23zM30 28l12 42q10 29 33 50t49 21q21 0 32.5 -13.5t11.5 -33.5q0 -5 -1 -10.5t-3 -13.5l-12 -42q-4 -14 -15 -31.5t-24.5 -32.5
t-27 -25.5t-20.5 -10.5h-7q-9 0 -14.5 6.5t-8.5 17t-4 23t-1 24.5v15v14z" />
    <glyph glyph-name="FL003Ch" unicode="&#x3c;" horiz-adv-x="363" 
d="M178 0h171l-86 266l239 264h-171l-239 -264z" />
    <glyph glyph-name="FL003Dh" unicode="=" horiz-adv-x="346" 
d="M341 289l114 135h-241l-115 -135h242zM286 102l115 135h-242l-114 -135h241z" />
    <glyph glyph-name="FL003Eh" unicode="&#x3e;" horiz-adv-x="363" 
d="M185 0h-171l241 266l-85 264h171l85 -264z" />
    <glyph glyph-name="FL003Fh" unicode="?" horiz-adv-x="523" 
d="M111 170h124v1q2 3 13.5 13.5t37.5 10.5h120q23 0 51.5 15t55.5 38.5t51 51t38 52.5q13 22 20 48.5t7 52.5q0 32 -11 54.5t-37 22.5h-354q-11 -14 -24 -30.5t-26 -34.5t-24.5 -36.5t-19.5 -34.5h318q7 0 7 -12q0 -18 -8 -27l-3 -5q0 -1 -5 -4.5t-8 -5.5q-5 -4 -14.5 -9.5
t-10.5 -5.5h-111q-21 0 -48 -15.5t-53.5 -39t-49.5 -50.5t-36 -50zM74 70q-4 -8 -4 -23q0 -21 11.5 -34t32.5 -13q13 0 26 5.5t23 14.5q17 15 26.5 36t9.5 38q0 20 -11.5 33.5t-32.5 13.5q-26 0 -49 -21t-32 -50z" />
    <glyph glyph-name="FL0040h" unicode="@" horiz-adv-x="601" 
d="M297 275q5 17 16.5 33.5t26 29t31.5 20.5t32 8q24 0 37 -18.5t13 -44.5q0 -5 -1 -12.5t-3 -16.5q-2 -3 -2 -6q0 -2 -2 -4h10q22 0 37.5 6.5t21.5 27.5q6 15 6 35q0 32 -18.5 54t-52.5 29h-103q-13 0 -26 -12t-24.5 -30t-20.5 -38.5t-13 -37.5q-7 -27 -13.5 -49.5
t-6.5 -27.5v-1q0 -20 10.5 -40t24.5 -38t27.5 -33t19.5 -24q8 -4 27.5 -6.5t32.5 -2.5h5q0 -4 -7.5 -30t-23.5 -83h-70q-20 4 -53 16t-64.5 38t-54 71t-22.5 116v2q0 44 16 93q13 45 35.5 90t51.5 81.5t61.5 59t64.5 22.5h145q13 -3 33.5 -5t43 -7.5t45 -16t40.5 -30.5
t29 -51.5t11 -78.5v-3q0 -40 -11 -82q-9 -33 -24.5 -54.5t-37 -33.5t-48.5 -17t-60 -5h-136q-34 5 -45.5 28t-11.5 56v11q0 9 1 12zM359 270q-1 -1 -1 -8q0 -15 12 -15q8 0 15.5 6.5t9.5 16.5t2 9q0 14 -13 14q-8 0 -15 -6.5t-10 -16.5z" />
    <glyph glyph-name="FL0041h" unicode="A" 
d="M590 0l-53 429q-3 12 -6.5 29.5t-8.5 33.5t-11.5 27t-14.5 11h-134q-6 0 -14.5 -7.5t-17 -17t-15.5 -19.5t-9 -16l-288 -460v-3q0 1 -2 -7h338q6 3 18 19t24.5 35t22 36t11.5 23l17 -113h143zM268 144l134 225l28 -235h-162v10z" />
    <glyph glyph-name="FL0042h" unicode="B" horiz-adv-x="551" 
d="M177 530l-155 -530h368q42 0 70.5 7.5t48 23t33 40.5t25.5 60l3 11q5 13 8.5 27t3.5 28q0 20 -7.5 36.5t-16.5 25.5q10 6 21.5 18.5t21.5 29t17 35.5t7 39v2q0 28 -3.5 55t-13 47t-25 32.5t-39.5 12.5h-367zM246 242l44 152h164q2 0 8 -8.5t8 -13.5l0.5 -2t1.5 -3l-2 -5
q0 -3 -3 -8.5t-6 -11.5t-6 -10.5t-4 -4.5h-128zM215 136l21 67h184v-14t-2 -10l-2 -5q-1 -1 -4 -8.5l-3 -7.5q-5 -5 -17 -13.5t-13 -8.5h-164z" />
    <glyph glyph-name="FL0043h" unicode="C" horiz-adv-x="505" 
d="M102 243q0 -72 23 -119t60 -74.5t84.5 -38.5t96.5 -11h64q31 30 54 65.5t42 69.5h-192q-14 0 -28.5 12t-27 30t-20.5 39.5t-8 40.5q0 8 2 18.5t5 22.5q5 17 13.5 34.5t19 31.5t22 22.5t22.5 8.5h208q29 30 52.5 63.5t46.5 71.5h-331q-42 0 -80 -26.5t-66.5 -67.5t-45 -92
t-16.5 -99v-2z" />
    <glyph glyph-name="FL0044h" unicode="D" horiz-adv-x="526" 
d="M567 241q-33 -65 -67.5 -110.5t-75.5 -74.5t-90.5 -42.5t-111.5 -13.5h-200l155 530h348q48 0 69.5 -33t21.5 -84q0 -39 -12 -84.5t-37 -87.5zM293 395l-76 -260h21q19 0 44.5 10.5t51 27.5t47.5 38.5t33 43.5q4 8 10 18t10 23q5 16 10.5 31t5.5 28q0 17 -6.5 28.5
t-21.5 11.5h-129z" />
    <glyph glyph-name="FL0045h" unicode="E" horiz-adv-x="500" 
d="M177 530l-155 -530h403q1 0 10 10t21 24.5t24.5 30.5t19.5 28q1 1 4 7l6.5 13t6.5 13.5t4 8.5h-307l18 60h159l115 135h-185l-76 -92l45 157h247q6 0 20 16t29 38t28 44.5t19 36.5h-456z" />
    <glyph glyph-name="FL0046h" unicode="F" horiz-adv-x="497" 
d="M177 530l-155 -530h153l57 195h159l115 135h-185l-76 -92l45 157h247q6 0 20 16t29 38t28 44.5t19 36.5h-456z" />
    <glyph glyph-name="FL0047h" unicode="G" horiz-adv-x="512" 
d="M586 330l-100 -330h-120q-49 0 -96.5 11t-84.5 38.5t-60 74.5t-23 119q0 48 16.5 99t45 93t66.5 68.5t80 26.5h331q-23 -38 -46.5 -71.5t-52.5 -63.5h-208q-13 0 -24.5 -8.5t-21.5 -22.5t-18 -31.5t-13 -34.5q-3 -12 -5 -22.5t-2 -18.5q0 -19 8 -40.5t20 -39.5t27 -30
t29 -12h48l18 65h-90v1q1 3 10 19.5t21.5 37t27 41t25.5 31.5h192z" />
    <glyph glyph-name="FL0048h" unicode="H" horiz-adv-x="523" 
d="M22 0h154l55 190h173l-55 -190h152l154 530h-152l-60 -205h-121l-82 -105l90 310h-153z" />
    <glyph glyph-name="FL0049h" unicode="I" horiz-adv-x="493" 
d="M18 0h400q6 0 20 16t29 38t28 44.5t19 36.5h-152l76 260h95q6 0 20 16t29 38t28 44.5t19 36.5h-401q-11 -9 -26.5 -29.5t-30.5 -42.5t-25.5 -40t-11.5 -22v-1h151l-76 -260h-96q-11 -9 -26.5 -29.5t-30.5 -42.5t-26 -40t-12 -22v-1z" />
    <glyph glyph-name="FL004Ah" unicode="J" horiz-adv-x="458" 
d="M264 0h23q51 0 86 17.5t60 51t43.5 83t36.5 113.5l77 265h-152l-86 -297q-6 -14 -15 -31t-21 -32t-26 -25t-29 -10h-162q-26 -32 -45 -66t-36 -69h246z" />
    <glyph glyph-name="FL004Bh" unicode="K" horiz-adv-x="558" 
d="M22 0h154l70 238l156 -238h172l-154 265l277 265h-171l-265 -238l69 238h-153z" />
    <glyph glyph-name="FL004Ch" unicode="L" horiz-adv-x="448" 
d="M22 0l155 530h153l-116 -395h254q1 0 -9.5 -17t-25.5 -39.5t-31.5 -45t-27.5 -33.5h-352z" />
    <glyph glyph-name="FL004Dh" unicode="M" horiz-adv-x="669" 
d="M646 0l155 530h-194l-196 -266l-41 266h-193l-155 -530h154l86 298l44 -298h56l217 298l-86 -298h153z" />
    <glyph glyph-name="FL004Eh" unicode="N" horiz-adv-x="523" 
d="M22 0h154l86 298l45 -298h194l154 530h-152l-87 -298l-46 298h-193z" />
    <glyph glyph-name="FL004Fh" unicode="O" horiz-adv-x="577" 
d="M638 287q2 17 3 33t1 31q0 96 -50 137.5t-146 41.5h-106q-42 0 -83.5 -24t-75.5 -63.5t-57.5 -91.5t-29.5 -108q-2 -14 -3 -27t-1 -25q0 -56 15.5 -93t43 -58.5t65 -30.5t81.5 -9h80q48 0 92 23t79.5 62t59.5 91t32 111zM244 257q1 8 4 18.5t7 22.5q7 17 19.5 34.5
t27 31.5t29.5 22.5t27 8.5h65q20 0 32.5 -7.5t19.5 -20t9.5 -28.5t2.5 -32q0 -9 -0.5 -17.5t-0.5 -16.5q0 1 -2 -9l-3 -10q-2 -9 -9 -22q-7 -17 -21.5 -34.5t-30.5 -31.5t-31 -22.5t-23 -8.5h-52q-15 0 -27.5 10t-22.5 26t-15.5 35.5t-5.5 37.5v6q0 6 1 7z" />
    <glyph glyph-name="FL0050h" unicode="P" horiz-adv-x="540" 
d="M22 0h154l56 192h225q27 0 57 14t54.5 39.5t40.5 60.5t16 77q0 20 -3.5 45.5t-13 48t-25 38t-39.5 15.5h-367zM290 394h164q2 0 8 -8.5t8 -13.5l0.5 -2t1.5 -3l-2 -5q0 -3 -3 -8.5t-6 -11.5t-6 -10.5t-4 -4.5h-128l-77 -85z" />
    <glyph glyph-name="FL0051h" unicode="Q" horiz-adv-x="571" 
d="M634 287q2 14 3 27t1 25q0 94 -53 142.5t-139 48.5h-106q-42 0 -83.5 -23.5t-75.5 -63t-57.5 -91.5t-29.5 -109q-3 -24 -3 -45q0 -59 18.5 -97t49.5 -60.5t71.5 -31.5t85.5 -9h72l14 -28h160l-40 95q45 45 75 104t37 116zM281 254l43 -119h-10q-15 0 -27.5 10t-22.5 26
t-15.5 35.5t-5.5 37.5v6q0 6 1 7q1 8 4 18.5t7 22.5q7 17 19.5 34.5t27 31.5t29.5 22.5t27 8.5h56q21 0 35 -9t22.5 -23.5t11.5 -32t3 -35.5v-12v-10q0 1 -2 -9l-3 -10q-2 -9 -9 -22q-2 -5 -3.5 -9t-3.5 -8l-16 39h-168z" />
    <glyph glyph-name="FL0052h" unicode="R" horiz-adv-x="554" 
d="M22 0h154l53 182l9 8l164 -190h172l-157 201q32 3 68 11.5t66.5 28t50.5 52.5t20 84q0 23 -3.5 50t-13.5 50t-27 38t-44 15h-357zM466 366q0 -10 -5 -23.5t-17 -13.5h-128l-70 -89l45 156h161q10 0 12 -5.5t2 -13.5v-11z" />
    <glyph glyph-name="FL0053h" unicode="S" horiz-adv-x="528" 
d="M402 168v6q0 8 -2 16.5t-9 8.5h-160q-24 0 -43.5 14.5t-33 37t-21 49.5t-7.5 53q0 24 11 54.5t29 58t40 46t45 18.5h408q-19 -34 -42 -68t-52 -68h-264q-9 0 -15.5 -15t-6.5 -24v-5q0 -1 3 -4.5t5 -5.5q3 -4 9 -7.5t7 -3.5h152q25 0 43.5 -15.5t30.5 -39t17.5 -50.5
t5.5 -50v-6q0 -26 -9.5 -55.5t-25.5 -54.5t-36 -41.5t-42 -16.5h-408q4 10 16.5 32t26.5 44.5t25.5 40t14.5 17.5h272q12 0 14 9t2 19v6z" />
    <glyph glyph-name="FL0054h" unicode="T" horiz-adv-x="493" 
d="M170 0h153l115 395h95q6 0 20 16t29 38t28 44.5t19 36.5h-401q-11 -9 -26.5 -29.5t-30.5 -42.5t-25.5 -40t-11.5 -22v-1h151z" />
    <glyph glyph-name="FL0055h" unicode="U" horiz-adv-x="546" 
d="M114 308l63 222h151q-28 -102 -43 -158.5t-22.5 -84.5t-9 -35.5t-1.5 -10.5q-2 -9 -3 -17t-1 -15q0 -35 13.5 -54.5t36.5 -19.5h39q19 0 35.5 10t29 25t22 32t15.5 31l87 297h152l-72 -247q-20 -69 -40.5 -121.5t-47 -88.5t-61.5 -54.5t-83 -18.5h-93q-56 0 -93.5 8
t-60 25.5t-32 45.5t-9.5 68q0 11 1 23t3 26q5 26 10.5 52t13.5 60z" />
    <glyph glyph-name="FL0056h" unicode="V" horiz-adv-x="593" 
d="M346 173l-38 357h-139l49 -429q3 -12 6 -29.5t8 -33.5t11 -27t15 -11h132q6 0 14.5 7.5t17 18t16 20.5t11.5 16l284 468h-165z" />
    <glyph glyph-name="FL0077h" unicode="W" horiz-adv-x="698" 
d="M574 286l-14 244h-123l-136 -262v262h-132v-439q0 -13 0.5 -29t2.5 -29.5t5.5 -23t9.5 -9.5h95q5 0 11.5 7.5t13 18t12 21t9.5 16.5l94 169q12 -122 16.5 -177t16.5 -55h95q4 0 10.5 7.5t13 18l13 21t9.5 16.5l242 467h-141z" />
    <glyph glyph-name="FL0058h" unicode="X" horiz-adv-x="526" 
d="M185 0l115 127l42 -127h170l-86 266l240 264h-172l-113 -125l-40 125h-171l85 -264l-241 -266h171z" />
    <glyph glyph-name="FL0059h" unicode="Y" horiz-adv-x="525" 
d="M186 0h153l74 252l252 278h-171l-114 -125l-40 125h-171l90 -278z" />
    <glyph glyph-name="FL005Ah" unicode="Z" horiz-adv-x="493" 
d="M18 0h400q6 0 20 16t29 38t28 44.5t19 36.5h-216l331 395h-401q-11 -9 -26.5 -29.5t-30.5 -42.5t-25.5 -40t-11.5 -22v-1h215z" />
    <glyph glyph-name="FL005Bh" unicode="[" horiz-adv-x="330" 
d="M196 597l-190 -653h228q1 0 10.5 10t21.5 24.5t24 30.5t19 28q1 1 4 7l6.5 13t6.5 13.5t4 8.5h-132l112 383h72q6 0 20 16t29 38t28 44.5t19 36.5h-282z" />
    <glyph glyph-name="FL005Ch" unicode="\" horiz-adv-x="526" 
d="M341 0h170l-171 530h-171z" />
    <glyph glyph-name="FL005Dh" unicode="]" horiz-adv-x="330" 
d="M290 -57l191 653h-228q-1 0 -10.5 -10t-21.5 -24.5t-24 -30.5t-19 -28q-1 -1 -4 -7l-6.5 -13t-6.5 -13.5t-4 -8.5h132l-112 -383h-72q-7 0 -21 -16t-28.5 -38t-27.5 -45t-19 -36h281z" />
    <glyph glyph-name="FL005Eh" unicode="^" 
d="M402 369l-216 -369h-170q2 8 2 7v3l288 460q2 6 9 16t15.5 19.5t17 17t14.5 7.5h134q8 0 14.5 -11t11.5 -27t8.5 -33.5t6.5 -29.5l53 -429h-143z" />
    <glyph glyph-name="FL005Fh" unicode="_" horiz-adv-x="370" 
d="M280 0l114 135h-265l-115 -135h266z" />
    <glyph glyph-name="FL0060h" unicode="`" horiz-adv-x="136" 
d="M234 500l6 -22q0 -10 2.5 -20.5t-2.5 -24.5q-3 -9 -7 -16.5t-11 -11.5l-4 -4q-2 -2 -9 -2q-11 0 -23.5 10t-16.5 23l-5 23q-2 6 -3 12t1 13q9 25 30 42q16 8 22 8q9 0 13 -9.5t7 -20.5z" />
    <glyph glyph-name="a" unicode="a" 
d="M590 0l-53 429q-3 12 -6.5 29.5t-8.5 33.5t-11.5 27t-14.5 11h-134q-6 0 -14.5 -7.5t-17 -17t-15.5 -19.5t-9 -16l-288 -460v-3q0 1 -2 -7h338q6 3 18 19t24.5 35t22 36t11.5 23l17 -113h143zM268 144l134 225l28 -235h-162v10z" />
    <glyph glyph-name="FL0062h" unicode="b" horiz-adv-x="551" 
d="M177 530l-155 -530h368q42 0 70.5 7.5t48 23t33 40.5t25.5 60l3 11q5 13 8.5 27t3.5 28q0 20 -7.5 36.5t-16.5 25.5q10 6 21.5 18.5t21.5 29t17 35.5t7 39v2q0 28 -3.5 55t-13 47t-25 32.5t-39.5 12.5h-367zM246 242l44 152h164q2 0 8 -8.5t8 -13.5l0.5 -2t1.5 -3l-2 -5
q0 -3 -3 -8.5t-6 -11.5t-6 -10.5t-4 -4.5h-128zM215 136l21 67h184v-14t-2 -10l-2 -5q-1 -1 -4 -8.5l-3 -7.5q-5 -5 -17 -13.5t-13 -8.5h-164z" />
    <glyph glyph-name="c" unicode="c" horiz-adv-x="505" 
d="M102 243q0 -72 23 -119t60 -74.5t84.5 -38.5t96.5 -11h64q31 30 54 65.5t42 69.5h-192q-14 0 -28.5 12t-27 30t-20.5 39.5t-8 40.5q0 8 2 18.5t5 22.5q5 17 13.5 34.5t19 31.5t22 22.5t22.5 8.5h208q29 30 52.5 63.5t46.5 71.5h-331q-42 0 -80 -26.5t-66.5 -67.5t-45 -92
t-16.5 -99v-2z" />
    <glyph glyph-name="FL0064h" unicode="d" horiz-adv-x="526" 
d="M566 239q-35 -65 -69.5 -110.5t-75 -74t-89 -41.5t-110.5 -13h-200l155 530h348q48 0 69.5 -33t21.5 -84q0 -39 -13 -85.5t-37 -88.5zM293 395l-76 -260h21q21 0 46.5 10.5t50.5 27.5t46 38.5t33 43.5q5 8 11 18t10 23q5 16 10 31t5 28q0 17 -6.5 28.5t-21.5 11.5h-129z
" />
    <glyph glyph-name="e" unicode="e" horiz-adv-x="500" 
d="M177 530l-155 -530h403q1 0 10 10t21 24.5t24.5 30.5t19.5 28q1 1 4 7l6.5 13t6.5 13.5t4 8.5h-307l18 60h159l115 135h-185l-76 -92l45 157h247q6 0 20 16t29 38t28 44.5t19 36.5h-456z" />
    <glyph glyph-name="FL0066h" unicode="f" horiz-adv-x="497" 
d="M177 530l-155 -530h153l57 195h159l115 135h-185l-76 -92l45 157h247q6 0 20 16t29 38t28 44.5t19 36.5h-456z" />
    <glyph glyph-name="FL0067h" unicode="g" horiz-adv-x="512" 
d="M586 330l-100 -330h-120q-49 0 -96.5 11t-84.5 38.5t-60 74.5t-23 119q0 48 16.5 99t45 93t66.5 68.5t80 26.5h331q-23 -38 -46.5 -71.5t-52.5 -63.5h-208q-13 0 -24.5 -8.5t-21.5 -22.5t-18 -31.5t-13 -34.5q-3 -12 -5 -22.5t-2 -18.5q0 -19 8 -40.5t20 -39.5t27 -30
t29 -12h48l18 65h-90v1q1 3 10 19.5t21.5 37t27 41t25.5 31.5h192z" />
    <glyph glyph-name="h" unicode="h" horiz-adv-x="523" 
d="M22 0h154l55 190h173l-55 -190h152l154 530h-152l-60 -205h-121l-82 -105l90 310h-153z" />
    <glyph glyph-name="FL0069h" unicode="i" horiz-adv-x="202" 
d="M24 0h154l154 530h-154z" />
    <glyph glyph-name="FL006Ah" unicode="j" horiz-adv-x="458" 
d="M264 0h23q51 0 86 17.5t60 51t43.5 83t36.5 113.5l77 265h-152l-86 -297q-6 -14 -15 -31t-21 -32t-26 -25t-29 -10h-162q-26 -32 -45 -66t-36 -69h246z" />
    <glyph glyph-name="FL006Bh" unicode="k" horiz-adv-x="558" 
d="M22 0h154l70 238l156 -238h172l-154 265l277 265h-171l-265 -238l69 238h-153z" />
    <glyph glyph-name="FL006Ch" unicode="l" horiz-adv-x="448" 
d="M22 0l155 530h153l-116 -395h254q1 0 -9.5 -17t-25.5 -39.5t-31.5 -45t-27.5 -33.5h-352z" />
    <glyph glyph-name="FL006Dh" unicode="m" horiz-adv-x="669" 
d="M646 0l155 530h-194l-196 -266l-41 266h-193l-155 -530h154l86 298l44 -298h56l217 298l-86 -298h153z" />
    <glyph glyph-name="FL006Eh" unicode="n" horiz-adv-x="523" 
d="M22 0h154l86 298l45 -298h194l154 530h-152l-87 -298l-46 298h-193z" />
    <glyph glyph-name="FL006Fh" unicode="o" horiz-adv-x="590" 
d="M651 287q2 16 3 30t1 28q0 99 -52.5 142t-143.5 43h-119q-42 0 -84 -24.5t-76 -65t-57 -92t-29 -105.5q-2 -14 -3 -27t-1 -25q0 -56 15.5 -93t43 -58.5t65 -30.5t81.5 -9h94q48 0 92.5 24t79.5 63.5t59 91.5t31 108zM244 257q1 8 4 18.5t7 22.5q7 17 19.5 34.5t27 31.5
t29.5 22.5t27 8.5h79q20 0 32.5 -7.5t19.5 -20t9.5 -28.5t2.5 -32q0 -9 -0.5 -17.5t-1.5 -16.5q0 -1 -0.5 -3t-0.5 -6l-4 -10q0 -4 -2.5 -9.5t-5.5 -12.5q-8 -17 -22.5 -34.5t-31 -31.5t-31 -22.5t-21.5 -8.5h-66q-15 0 -27.5 10t-22.5 26t-15.5 35.5t-5.5 37.5v6q0 6 1 7z
" />
    <glyph glyph-name="p" unicode="p" horiz-adv-x="540" 
d="M22 0h154l56 192h225q27 0 57 14t54.5 39.5t40.5 60.5t16 77q0 20 -4.5 45.5t-14 48t-25 38t-37.5 15.5h-367zM290 394h164q2 0 8 -8.5t8 -13.5l0.5 -2t1.5 -3l-2 -5q0 -3 -3 -8.5t-6 -11.5t-6 -10.5t-4 -4.5h-128l-77 -85z" />
    <glyph glyph-name="FL0071h" unicode="q" horiz-adv-x="569" 
d="M634 287q2 14 3 27t1 25q0 94 -53 142.5t-139 48.5h-106q-42 0 -83.5 -24.5t-75.5 -64.5t-57.5 -92t-29.5 -106q-3 -24 -3 -45q0 -59 18.5 -97t49.5 -60.5t71.5 -31.5t85.5 -9h72l14 -28h160l-40 95q45 45 75 104t37 116zM281 254l43 -119h-10q-15 0 -27.5 10t-22.5 26
t-15.5 35.5t-5.5 37.5v6q0 6 1 7q1 8 4 18.5t7 22.5q7 17 19.5 34.5t27 31.5t29.5 22.5t27 8.5h56q21 0 35 -9t22.5 -23.5t11.5 -32t3 -35.5v-12v-10q0 1 -2 -9l-3 -10q-2 -9 -9 -22q-2 -5 -3.5 -9t-3.5 -8l-16 39h-168z" />
    <glyph glyph-name="r" unicode="r" horiz-adv-x="559" 
d="M22 0h154l53 182l9 8l164 -190h172l-157 201q32 3 68 11.5t66.5 28t50.5 52.5t20 84q0 23 -3 50t-12 50t-26.5 38t-46.5 15h-357zM466 366q0 -10 -5 -23.5t-17 -13.5h-128l-70 -89l45 156h161q10 0 12 -5.5t2 -13.5v-11z" />
    <glyph glyph-name="FL201Ch" unicode="s" horiz-adv-x="528" 
d="M402 168v6q0 8 -2 16.5t-9 8.5h-160q-24 0 -43.5 14.5t-33 37t-21 49.5t-7.5 53q0 24 11 54.5t29 58t40 46t45 18.5h408q-19 -34 -42 -68t-52 -68h-264q-9 0 -15.5 -15t-6.5 -24v-5q0 -1 3 -4.5t5 -5.5q3 -4 9 -7.5t7 -3.5h152q27 0 45.5 -15.5t30 -39t16.5 -50.5t5 -50
v-6q0 -26 -9.5 -55.5t-25.5 -54.5t-36 -41.5t-42 -16.5h-408q4 10 16.5 32t26.5 44.5t25.5 40t14.5 17.5h272q12 0 14 9t2 19v6z" />
    <glyph glyph-name="FL0074h" unicode="t" horiz-adv-x="493" 
d="M170 0h153l115 395h95q6 0 20 16t29 38t28 44.5t19 36.5h-401q-11 -9 -26.5 -29.5t-30.5 -42.5t-25.5 -40t-11.5 -22v-1h151z" />
    <glyph glyph-name="FL2022h" unicode="u" horiz-adv-x="546" 
d="M114 308l63 222h151q-28 -102 -43 -158.5t-22.5 -84.5t-9 -35.5t-1.5 -10.5q-2 -9 -3 -17t-1 -15q0 -35 15.5 -54.5t34.5 -19.5h39q19 0 35.5 10t29 25t22 32t15.5 31l87 297h152l-72 -247q-20 -69 -40.5 -121.5t-47 -88.5t-61.5 -54.5t-83 -18.5h-93q-57 0 -94.5 8.5
t-60 26.5t-32 46.5t-9.5 68.5q0 11 0.5 22t2.5 25q5 26 11.5 51.5t14.5 59.5z" />
    <glyph glyph-name="FL0076h" unicode="v" horiz-adv-x="593" 
d="M346 173l-38 357h-139l49 -429q3 -12 6 -29.5t8 -33.5t11 -27t15 -11h132q6 0 14.5 7.5t17 18t16 20.5t11.5 16l284 468h-165z" />
    <glyph glyph-name="FL0057h" unicode="w" horiz-adv-x="698" 
d="M81 199q-5 -17 -8 -33t-3 -33q0 -27 9 -51t29.5 -42t54.5 -29t84 -11h428l155 530h-152l-116 -396h-96l115 396h-152l-114 -391q-12 4 -24.5 5t-22.5 6.5t-16 17.5t-6 39q0 3 1.5 11t3.5 17.5l4 19t3 14.5l70 261h-150z" />
    <glyph glyph-name="FL0079h" unicode="x" horiz-adv-x="526" 
d="M185 0l115 127l42 -127h170l-86 266l240 264h-172l-113 -125l-40 125h-171l85 -264l-241 -266h171z" />
    <glyph glyph-name="FL007Bh" unicode="y" horiz-adv-x="525" 
d="M186 0h153l74 252l252 278h-171l-114 -125l-40 125h-171l90 -278z" />
    <glyph glyph-name="FL007Ah" unicode="z" horiz-adv-x="493" 
d="M18 0h400q6 0 20 16t29 38t28 44.5t19 36.5h-216l331 395h-401q-11 -9 -26.5 -29.5t-30.5 -42.5t-25.5 -40t-11.5 -22v-1h215z" />
    <glyph glyph-name="FL007Dh" unicode="{" horiz-adv-x="444" 
d="M310 597h282q-5 -14 -18.5 -36.5t-28.5 -44.5t-28.5 -38t-20.5 -16h-72l-111 -383h132q-1 -2 -4 -8.5t-7 -13.5t-7 -13t-4 -7q-7 -12 -19 -28t-24 -30.5t-21 -24.5t-10 -10h-228l73 251h-123l115 135h47z" />
    <glyph glyph-name="FL007Ch" unicode="|" horiz-adv-x="198" 
d="M-18 -141h153l235 810h-153z" />
    <glyph glyph-name="FL007Eh" unicode="}" horiz-adv-x="444" 
d="M290 -57h-281q6 13 19 36t27.5 45t28.5 38t21 16h72l112 383h-132q1 2 4 8.5t6.5 13.5l6.5 13t4 7q7 12 19 28t24 30.5t21.5 24.5t10.5 10h228l-73 -251h122l-115 -135h-47z" />
    <glyph glyph-name="FL0080h" unicode="~" horiz-adv-x="330" 
d="M282 262l51 68h78l-1 -2.5t-10 -13.5t-28 -35.5t-54 -69.5q-5 -4 -10.5 -9t-9.5 -5h-70l-26 68l-52 -68h-78l94 121q4 4 9.5 9t10.5 5h70z" />
    <glyph glyph-name="FL007Fh" horiz-adv-x="140" 
 />
    <glyph glyph-name="FL20ACh" unicode="&#x20ac;" horiz-adv-x="592" 
d="M394 164h-18q21 -29 46 -29h191q-19 -34 -42 -69.5t-53 -65.5h-64q-42 0 -83 7.5t-75.5 26.5t-60.5 50.5t-37 79.5h-136l100 80h27l1 30h-96l100 80h16q13 35 32.5 67t44 56t53 38.5t58.5 14.5h330q-23 -38 -46.5 -71.5t-51.5 -63.5h-208q-15 0 -29 -12t-24 -29h157
l-100 -80h-88l-1 -23q0 -1 0.5 -2.5t0.5 -4.5h156z" />
    <glyph glyph-name="FL201Ah" unicode="&#x201a;" horiz-adv-x="166" 
d="M30 28l12 42q10 29 33 50t49 21t37.5 -21t2.5 -50l-12 -42q-4 -14 -15 -31.5t-24.5 -32.5t-27 -25.5t-20.5 -10.5h-7q-12 0 -18 11.5t-8.5 27t-2.5 32.5t1 29z" />
    <glyph glyph-name="FL00B6h" unicode="&#x192;" horiz-adv-x="701" 
d="M762 291l-1 -2l-15 -26h-40l12 -48v-7l-2 -5q-6 -20 -22 -26l-39 12l-26 -73q-8 -14 -21 -14q-10 0 -18 6.5t-19 17.5l-62 -67l-23 -6l-16 37l-100 -61l-12 6l11 37l-115 -24l-10 11l14 31l-109 13l7 23l19 21l-64 18q-14 0 -6 24l36 31l-39 32l4 30l51 12l-13 44l14 37
l50 -7q25 88 46 88h1l42 -25q26 31 42.5 49t30.5 25l28 -37l95 56l12 -19l-11 -19l4 -6l93 25l29 -6l-15 -37h102l6 -13q-11 -32 -27 -35l77 -33l-1 -3l-1 -4q-9 -30 -42 -36q49 -31 43 -47zM746 282v12l-56 51l49 17h5l-2 13l-89 31l45 37h-117l21 43l-120 -24l8 37l-7 6
l-96 -56l-22 37l-67 -72q-5 -4 -13 -4q-14 0 -35 27l-33 -87l-55 7l-3 -26l15 -55l-58 -6l58 -55l-57 -31l94 -33l-45 -35l119 -7l-26 -43l117 31l6 -25l-11 -24l105 61l28 -37l65 75l49 -26l29 87l53 -14l3 8q5 18 -14 74zM675 326l-33 -80l-12 3l28 83zM634 212l-16 -18
l-6 14l12 10zM603 218q-17 0 -30 54l-16 -54l-12 -1l31 109l22 -70l26 76l11 -6zM531 218l-8 5q-2 26 -10 26q-10 0 -27 -26h-16q11 28 26.5 55t36.5 53q3 3 12 3q15 0 9 -34zM494 332l-36 -107l-20 -8l39 110zM422 214q-19 0 -31 52l-15 -51l-13 -3l31 110l24 -70l24 75
l12 -5zM377 290q-33 -76 -53 -76q-5 -1 -8 -1.5t-5 -0.5q-21 0 -21 18q21 73 57 96h3h5q23 0 22 -36zM314 330l-10 -27q-3 3 -7 3q-10 0 -25 -16q-18 -21 -24 -44q-8 -21 10 -21q3 0 6.5 0.5t8.5 1.5l-4 -18q-8 -2 -12 -3.5t-6 -1.5q-23 0 -15 48q-1 1 2 8l1 6q15 52 75 64z
M249 327l-35 -107l-20 -8l40 111zM533 272l1 37l-25 -37h24zM357 275q1 5 1 8v4q0 15 -10 15q-12 0 -33 -36l-2 -7q-8 -26 5 -26q6 0 23 9q5 9 9.5 17t6.5 16z" />
    <glyph glyph-name="FL201Fh" unicode="&#x201e;" horiz-adv-x="305" 
d="M169 28l12 42q10 29 32.5 50t48.5 21t37.5 -21t2.5 -50l-12 -42q-4 -14 -15 -31.5t-24.5 -32.5t-27 -25.5t-20.5 -10.5h-7q-12 0 -18 11.5t-8.5 27t-2 32.5t1.5 29zM30 28l12 42q10 29 33 50t49 21t37.5 -21t2.5 -50l-12 -42q-4 -14 -15 -31.5t-24.5 -32.5t-27 -25.5
t-20.5 -10.5h-7q-12 0 -18 11.5t-8.5 27t-2.5 32.5t1 29z" />
    <glyph glyph-name="FL2026h" unicode="&#x2026;" horiz-adv-x="449" 
d="M325 70q-9 -29 3 -49.5t38 -20.5t49 20.5t31 49.5q9 29 -2.5 50t-37.5 21t-48.5 -21t-32.5 -50zM182 70q-9 -29 3 -49.5t38 -20.5t49.5 20.5t31.5 49.5q9 29 -2.5 50t-37.5 21t-49 -21t-33 -50zM42 70q-9 -29 3 -49.5t38 -20.5t49.5 20.5t31.5 49.5q9 29 -2.5 50
t-37.5 21t-49 -21t-33 -50z" />
    <glyph glyph-name="FL2020h" unicode="&#x2020;" horiz-adv-x="346" 
d="M97 0l84 289h-82l115 135h6l31 106h154l-31 -106h81l-114 -135h-7l-84 -289h-153z" />
    <glyph glyph-name="FL2021h" unicode="&#x2021;" horiz-adv-x="346" 
d="M97 0l29 102h-81l114 135h7l15 52h-82l115 135h6l31 106h154l-31 -106h81l-114 -135h-7l-15 -52h82l-115 -135h-6l-30 -102h-153z" />
    <glyph glyph-name="FL02C6h" unicode="&#x2c6;" horiz-adv-x="241" 
d="M255 472l-47 -59h-73l87 105q3 3 8 7.5t9 4.5h50q7 0 11.5 -8.5t9.5 -14.5l36 -94h-65z" />
    <glyph glyph-name="FL2030h" unicode="&#x2030;" horiz-adv-x="910" 
d="M68 0h137l514 530h-138zM409 408q5 33 -0.5 56t-18.5 38t-32.5 21.5t-43.5 6.5h-53q-18 0 -37 -10.5t-35 -27.5t-28.5 -38.5t-18.5 -43.5q-2 -6 -3 -12l-2 -12q-4 -36 2 -59.5t20 -37t34.5 -19t44.5 -5.5h40q21 0 40.5 10.5t36.5 27.5t30 38.5t19 43.5l3 11q2 8 2 12z
M225 397l5 16q6 14 17.5 26t22.5 12h24q14 0 19.5 -9.5t5.5 -23.5q0 -12 -1 -15l-2 -7q-1 -3 -1.5 -5t-1.5 -4q-7 -14 -20.5 -26t-20.5 -12h-21q-11 0 -19.5 16.5t-6.5 31.5zM652 143q9 66 -19 94t-77 28h-53q-18 0 -36.5 -10.5t-34.5 -27.5t-28.5 -38.5t-18.5 -43.5
q-2 -6 -3 -12l-2 -12q-4 -36 2.5 -59.5t20 -37t34 -19t44.5 -5.5h40q21 0 40.5 10.5t36.5 27.5t30 38.5t19 43.5l3 11q1 5 1.5 8t0.5 4zM468 132l5 16q7 14 18 26t22 12h24q15 0 20 -9.5t5 -23.5q0 -12 -1 -15l-2 -7q-1 -2 -1.5 -4t-2.5 -5q-7 -14 -19.5 -26t-20.5 -12h-21
q-11 0 -19.5 16.5t-6.5 31.5zM928 143q9 66 -19 94t-77 28h-53q-18 0 -36.5 -10.5t-34.5 -27.5t-28.5 -38.5t-18.5 -43.5q-2 -6 -3 -12l-2 -12q-4 -36 2.5 -59.5t20 -37t34 -19t44.5 -5.5h40q21 0 40.5 10.5t36.5 27.5t30 38.5t19 43.5l3 11q1 5 1.5 8t0.5 4zM744 132l5 16
q7 14 18 26t22 12h24q15 0 20 -9.5t5 -23.5q0 -12 -1 -15l-2 -7q-1 -2 -1.5 -4t-2.5 -5q-7 -14 -19.5 -26t-20.5 -12h-21q-11 0 -19.5 16.5t-6.5 31.5z" />
    <glyph glyph-name="FL0160h" unicode="&#x160;" horiz-adv-x="528" 
d="M402 168v6q0 8 -2 16.5t-9 8.5h-160q-24 0 -43.5 14.5t-33 37t-21 49.5t-7.5 53q0 24 11 54.5t29 58t40 46t45 18.5h408q-19 -34 -42 -68t-52 -68h-264q-9 0 -15.5 -15t-6.5 -24v-5q0 -1 3 -4.5t5 -5.5q3 -4 9 -7.5t7 -3.5h152q23 0 41 -16t30.5 -39.5t19 -51t6.5 -50.5
v-4q0 -26 -9.5 -55.5t-25.5 -54.5t-36 -41.5t-42 -16.5h-408q4 10 16.5 32t26.5 44.5t25.5 40t14.5 17.5h272q12 0 14 9t2 19v6zM438 649l48 59h72l-86 -105q-3 -3 -8 -7.5t-10 -4.5h-49q-7 0 -11.5 8.5t-9.5 14.5l-37 94h66z" />
    <glyph glyph-name="FL2039h" unicode="&#x2039;" horiz-adv-x="138" 
d="M148 273l37 -37l-27 -91l-64 69q-2 3 -4 8t0 10l18 62q2 8 11.5 18t16.5 16l99 81l-24 -82z" />
    <glyph glyph-name="FL0152h" unicode="&#x152;" horiz-adv-x="844" 
d="M102 243q0 48 16.5 99t45 93t66.5 68.5t80 26.5h667q-6 -14 -19 -36.5t-28 -44.5t-29 -38t-20 -16h-247l-45 -157l76 92h185l-115 -135h-159l-18 -60h307q-1 -2 -4 -8.5t-6.5 -13.5l-6.5 -13t-4 -7q-7 -12 -19.5 -28t-24.5 -30.5t-21 -24.5t-10 -10h-403q-49 0 -96.5 11
t-84.5 38.5t-60 74.5t-23 119zM482 395h-148q-13 0 -24.5 -8.5t-21.5 -22.5t-18 -31.5t-13 -34.5q-3 -12 -5 -22.5t-2 -18.5q0 -19 8 -40.5t20.5 -39.5t27 -30t28.5 -12h72z" />
    <glyph glyph-name="FL017Dh" unicode="&#x17d;" horiz-adv-x="493" 
d="M418 0h-400l331 395h-215v1q1 4 11.5 22t25.5 40t30.5 42.5t26.5 29.5h401l-331 -395h216q-6 -14 -19 -36.5t-28 -44.5t-29 -38t-20 -16zM438 649l48 59h72l-86 -105q-3 -3 -8 -7.5t-10 -4.5h-49q-7 0 -11.5 8.5t-9.5 14.5l-37 94h66z" />
    <glyph glyph-name="FL2018h" unicode="&#x2018;" horiz-adv-x="145" 
d="M250 440l-11 -37q-8 -26 -28 -45t-41 -19t-30 19t-1 45l11 37q4 13 13.5 28.5t21 29t22.5 23t17 9.5h6q10 0 14.5 -10t6 -24.5t1 -30t-1.5 -25.5z" />
    <glyph glyph-name="FL2019h" unicode="&#x2019;" horiz-adv-x="145" 
d="M148 430l10 37q8 26 27.5 45t40.5 19q22 0 31 -19t1 -45l-10 -37q-4 -13 -13.5 -28.5t-21 -29t-22.5 -23t-17 -9.5h-7q-9 0 -14 10t-6.5 24.5t-1 29.5t2.5 26z" />
    <glyph glyph-name="FL201Eh" unicode="&#x201c;" horiz-adv-x="261" 
d="M250 440l-10 -37q-8 -26 -28 -45t-41 -19q-22 0 -30.5 19t-0.5 45l10 37q4 13 14 28.5t21.5 29t22.5 23t17 9.5h6q10 0 14.5 -10t6 -24.5t0.5 -30t-2 -25.5zM366 440l-10 -37q-8 -26 -28 -45t-41 -19q-22 0 -30.5 19t-0.5 45l10 37q4 13 14 28.5t21.5 29t22.5 23t17 9.5
h6q10 0 14.5 -10t6 -24.5t0.5 -30t-2 -25.5z" />
    <glyph glyph-name="FL201Dh" unicode="&#x201d;" horiz-adv-x="261" 
d="M264 430l10 37q8 26 27.5 45t40.5 19q22 0 31 -19t1 -45l-10 -37q-4 -13 -13.5 -28.5t-21 -29t-22.5 -23t-17 -9.5h-7q-9 0 -14 10t-6.5 24.5t-1 29.5t2.5 26zM148 430l10 37q8 26 27.5 45t40.5 19q22 0 31 -19t1 -45l-10 -37q-4 -13 -13.5 -28.5t-21 -29t-22.5 -23
t-17 -9.5h-7q-9 0 -14 10t-6.5 24.5t-1 29.5t2.5 26z" />
    <glyph glyph-name="FL2023h" unicode="&#x2022;" horiz-adv-x="285" 
d="M99 257q1 8 4 18.5t7 22.5q7 17 19.5 34.5t27 31.5t29.5 22.5t28 8.5h64q18 0 30.5 -7t20 -18.5t10.5 -26t3 -30.5v-21q0 -9 -1 -19q0 1 -2 -9l-3 -10q-2 -9 -9 -22q-8 -17 -21.5 -34.5t-29.5 -31.5t-30.5 -22.5t-23.5 -8.5h-53q-16 0 -29.5 12t-23.5 30t-14.5 39.5
t-2.5 40.5z" />
    <glyph glyph-name="FL2013h" unicode="&#x2013;" horiz-adv-x="289" 
d="M256 195l114 135h-184l-115 -135h185z" />
    <glyph glyph-name="FL2014h" unicode="&#x2014;" horiz-adv-x="346" 
d="M313 195l114 135h-241l-115 -135h242z" />
    <glyph glyph-name="FL02DCh" unicode="&#x2dc;" horiz-adv-x="311" 
d="M330 471l48 59h72l-3 -4.5t-22 -27.5t-60 -73q-5 -3 -9.5 -7.5t-9.5 -4.5h-65l-26 59l-47 -59h-73l87 105q3 3 8 7.5t9 4.5h66z" />
    <glyph glyph-name="FL0161h" unicode="&#x161;" horiz-adv-x="528" 
d="M402 168v6q0 8 -2 16.5t-9 8.5h-160q-24 0 -43.5 14.5t-33 37t-21 49.5t-7.5 53q0 24 11 54.5t29 58t40 46t45 18.5h408q-19 -34 -42 -68t-52 -68h-264q-9 0 -15.5 -15t-6.5 -24v-5q0 -1 3 -4.5t5 -5.5q3 -4 9 -7.5t7 -3.5h152q23 0 41 -16t30.5 -39.5t19 -51t6.5 -50.5
v-4q0 -26 -9.5 -55.5t-25.5 -54.5t-36 -41.5t-42 -16.5h-408q4 10 16.5 32t26.5 44.5t25.5 40t14.5 17.5h272q12 0 14 9t2 19v6zM438 649l48 59h72l-86 -105q-3 -3 -8 -7.5t-10 -4.5h-49q-7 0 -11.5 8.5t-9.5 14.5l-37 94h66z" />
    <glyph glyph-name="FL203Ah" unicode="&#x203a;" horiz-adv-x="138" 
d="M150 279l-36 37l26 91h1v1l63 -70q2 -3 4 -8t0 -10l-18 -62q-2 -8 -11.5 -18t-16.5 -16l-99 -81l24 82z" />
    <glyph glyph-name="FL0153h" unicode="&#x153;" horiz-adv-x="844" 
d="M102 243v2q0 48 16.5 99t45 92t66.5 67.5t80 26.5h667q-6 -14 -19 -36.5t-28 -44.5t-29 -38t-20 -16h-247l-45 -157l76 92h185l-115 -135h-159l-18 -60h307q-1 -2 -4 -8.5t-6.5 -13.5l-6.5 -13t-4 -7q-7 -12 -19.5 -28t-24.5 -30.5t-21 -24.5t-10 -10h-403
q-49 0 -96.5 11t-84.5 38.5t-60 74.5t-23 119zM482 395h-148q-13 0 -24.5 -8.5t-21.5 -22.5t-18 -31.5t-13 -34.5q-3 -12 -5 -22.5t-2 -18.5q0 -19 8 -40.5t20.5 -39.5t27 -30t28.5 -12h72z" />
    <glyph glyph-name="FL017Eh" unicode="&#x17e;" horiz-adv-x="493" 
d="M418 0h-400l331 395h-215v1q1 4 11.5 22t25.5 40t30.5 42.5t26.5 29.5h401l-331 -395h216q-6 -14 -19 -36.5t-28 -44.5t-29 -38t-20 -16zM438 649l48 59h72l-86 -105q-3 -3 -8 -7.5t-10 -4.5h-49q-7 0 -11.5 8.5t-9.5 14.5l-37 94h66z" />
    <glyph glyph-name="FL0178h" unicode="&#x178;" horiz-adv-x="525" 
d="M259 252l-90 278h171l40 -125l114 125h171l-252 -278l-74 -252h-153zM331 652q8 25 27 42t41 17t31.5 -17t2.5 -42q-8 -25 -27 -42t-41 -17t-31.5 17t-2.5 42zM578 652q-8 -25 -27 -42t-41 -17q-21 0 -31.5 17t-2.5 42t27.5 42t41.5 17t31 -17t2 -42z" />
    <glyph glyph-name="FL00A1h" unicode="&#xa1;" horiz-adv-x="198" 
d="M281 359h-154l-105 -359h154zM295 460q9 29 -2.5 49.5t-37.5 20.5t-49 -20.5t-32 -49.5t2.5 -50t37.5 -21t49.5 21t31.5 50z" />
    <glyph glyph-name="FL00A2h" unicode="&#xa2;" horiz-adv-x="505" 
d="M214 -142h100l42 142h74q31 30 54 65.5t42 69.5h-131l76 260h71q29 30 52.5 63.5t46.5 71.5h-131l40 138h-100l-40 -138h-100q-42 0 -80 -26.5t-66.5 -67.5t-45 -92t-16.5 -99v-2q0 -52 12 -91t33 -66.5t50 -45t62 -26.5zM370 395l-71 -243q-19 19 -34 47.5t-15 55.5v2
q0 8 2 18.5t5 22.5q5 17 13 34.5t18 31.5t21.5 22.5t24.5 8.5h36z" />
    <glyph glyph-name="FL00A3h" unicode="&#xa3;" horiz-adv-x="539" 
d="M525 0q1 19 1.5 37t0.5 35q0 19 -1 34.5t-4 29.5h-157q-2 0 -7.5 8.5t-7.5 13.5l-0.5 2t-1.5 3l2 5q2 3 4.5 10t7.5 14h157l-45 135h-69q-2 0 -2 4q0 8 1 17t2 14l2 5q1 1 2 3l1 2q6 5 16.5 13.5t12.5 8.5h47q5 35 5 69q0 35 -6 67h-56q-20 0 -44.5 -15.5t-47.5 -38
t-43 -48t-32 -45.5q-7 -11 -10.5 -22t-8.5 -22q-2 -5 -2.5 -9t-1.5 -8h-57l-114 -135h124q-5 -8 -6.5 -15t-3.5 -14l-7 -23h-47l-115 -135h511z" />
    <glyph glyph-name="FL00A4h" unicode="&#xa4;" horiz-adv-x="526" 
d="M522 279q3 26 0.5 46t-10.5 36l154 169h-172l-96 -107h-9h-14l-34 107h-171l51 -157q-25 -26 -41.5 -58t-18.5 -62q-3 -26 -0.5 -46t9.5 -35v-1l-156 -171h171l99 109h16h6l36 -109h170l-52 160q26 25 41.5 57t20.5 62zM260 261q0 5 2.5 11t4.5 13q11 21 30 39.5t37 18.5
h43q17 0 26 -7t13.5 -17.5t5 -23.5t-0.5 -24q0 -3 -3 -12q-1 -3 -5 -13q-5 -10 -14 -20t-18.5 -18.5t-19.5 -13.5t-16 -5h-35q-11 0 -20.5 7t-16 17.5t-10.5 23.5t-3 24z" />
    <glyph glyph-name="FL00A5h" unicode="&#xa5;" horiz-adv-x="525" 
d="M186 0l18 63h-128l100 80h51l9 30h-128l100 80h50l-89 277h171l40 -125l114 125h171l-251 -277h126l-100 -80h-50l-9 -30h127l-100 -80h-50l-19 -63h-153z" />
    <glyph glyph-name="FL00A6h" unicode="&#xa6;" horiz-adv-x="198" 
d="M-18 -141h153l235 810h-153z" />
    <glyph glyph-name="FL00A7h" unicode="&#xa7;" horiz-adv-x="526" 
d="M522 279q3 26 0.5 46t-10.5 36l154 169h-172l-96 -107h-23q-42 0 -80 -10t-74 -40q-20 -20 -34 -44t-21 -48q-2 -8 -3.5 -14.5t-1.5 -13.5q-3 -26 -0.5 -46t9.5 -35l-156 -172h171l99 109h22q49 0 86 15t68 36q21 20 34.5 43.5t20.5 47.5q2 7 3.5 14t3.5 14zM260 261
q0 1 2 7l5 17q11 21 30 39.5t37 18.5h43q17 0 26 -7t13.5 -17.5t5 -23.5t-0.5 -24q0 -3 -3 -12q-1 -3 -5 -13q-5 -10 -14 -20t-18.5 -18.5t-19.5 -13.5t-16 -5h-35q-11 0 -20.5 7t-16 17.5t-10.5 23.5t-3 24z" />
    <glyph glyph-name="FL00A8h" unicode="&#xa8;" horiz-adv-x="291" 
d="M159 471q8 25 27 42t41 17t31.5 -17t2.5 -42q-8 -25 -27 -42t-41 -17t-31.5 17t-2.5 42zM406 471q-8 -25 -27 -42t-41 -17q-21 0 -31.5 17t-2.5 42t27.5 42t41.5 17t31 -17t2 -42z" />
    <glyph glyph-name="copyright" unicode="&#xa9;" horiz-adv-x="222" 
d="M284 594q-21 0 -47 -14q-27 -14 -46 -41q-10 -14 -16.5 -27.5t-11.5 -28.5q-8 -31 -4 -54q2 -14 7.5 -24t13.5 -18q19 -14 40 -14q11 0 48 14q14 8 24.5 18t20.5 24q19 23 28 54q8 34 4 56q-5 27 -22 41q-19 14 -39 14zM279 576q20 0 32 -12q16 -13 19 -34q2 -26 -4 -47
q-9 -26 -24 -45q-17 -23 -36 -34q-23 -12 -40 -12q-19 0 -34 12q-8 8 -12 16t-6 18q-2 24 4 45l10 24t14 23q17 23 37.5 34.5t39.5 11.5zM276 466q-15 -28 -38 -28q-30 0 -16 45q6 23 18 35t26 12q18 0 20 -23l15 4q2 35 -30 35q-22 0 -39 -16t-26 -47q-9 -30 -1 -46.5
t29 -16.5q16 0 30.5 11t24.5 30z" />
    <glyph glyph-name="FL00ABh" unicode="&#xab;" horiz-adv-x="246" 
d="M256 273l37 -37l-27 -91l-64 69q-2 3 -4 8t0 10l18 62q2 8 11.5 18t16.5 16l99 81l-24 -82zM148 272l37 -37l-27 -91l-64 69q-2 3 -4 8t0 10l18 62q2 8 11.5 18t16.5 16l98 81l-23 -82z" />
    <glyph glyph-name="FL00ACh" unicode="&#xac;" horiz-adv-x="378" 
d="M277 98l28 97h-234l115 135h266l-67 -232h-108z" />
    <glyph glyph-name="FL00ADh" unicode="&#xad;" horiz-adv-x="254" 
d="M222 195l114 135h-150l-115 -135h151z" />
    <glyph glyph-name="registered" unicode="&#xae;" horiz-adv-x="222" 
d="M285 595q-20 0 -48 -14q-26 -15 -45 -41q-10 -14 -17 -27.5t-12 -28.5q-8 -29 -3 -54q2 -14 7 -24t13 -18q19 -14 40 -14q11 0 48 14q14 8 25 18t21 24q18 27 27 54q9 30 5 56t-23 41q-16 14 -38 14zM279 577q19 0 33 -12q15 -14 18 -34q3 -19 -4 -47q-6 -21 -23 -45
q-19 -23 -37 -34q-23 -12 -40 -12q-19 0 -34 12q-14 14 -17 34q-3 19 3 45q8 25 24 47q17 23 37.5 34.5t39.5 11.5zM196 424h15l15 50h9q8 0 11 -4q5 -5 8 -28l3 -18h19l-5 23q-3 13 -5 19.5t-8 10.5q12 1 22 10.5t14 22.5q3 10 0 18q0 7 -8 11q-3 4 -23 4h-32zM230 490
l11 36h17q15 0 16 -1q7 -4 4 -17q-3 -8 -9 -13t-20 -5h-19z" />
    <glyph glyph-name="FL00AFh" unicode="&#xaf;" horiz-adv-x="370" 
d="M395 395l115 135h-266l-114 -135h265z" />
    <glyph glyph-name="FL00B0h" unicode="&#xb0;" horiz-adv-x="146" 
d="M159 471q8 25 27 42t41 17t31.5 -17t2.5 -42q-8 -25 -27 -42t-41 -17t-31.5 17t-2.5 42z" />
    <glyph glyph-name="FL00B1h" unicode="&#xb1;" horiz-adv-x="369" 
d="M180 164l28 97h-118l114 135h43l31 103h108l-31 -103h114l-115 -135h-38l-28 -97h-108zM14 0l114 135h265l-115 -135h-264z" />
    <glyph glyph-name="FL00B4h" unicode="&#xb4;" horiz-adv-x="136" 
d="M194 500l-20 -22q-6 -10 -13.5 -20.5t-11.5 -24.5q-3 -9 -4 -16.5t4 -11.5l3 -4q2 -2 7 -2q11 0 29.5 10.5t29.5 22.5l20 23q5 6 9 12t7 13q7 25 -6 42q-10 8 -18 8q-9 0 -18 -9.5t-18 -20.5z" />
    <glyph glyph-name="FL00B5h" unicode="&#xb5;" horiz-adv-x="670" 
d="M731 282l-1 12l-55 51l49 17h5l-2 13l-89 31l44 37h-116l21 43l-120 -24l7 37l-6 6l-96 -56l-22 37l-68 -72q-5 -4 -12 -4q-14 0 -36 27l-32 -87l-55 7l-3 -26l14 -55l-57 -6l57 -55l-56 -31l94 -33l-46 -35l120 -7l-26 -43l117 31l6 -25l-11 -24l105 61l28 -37l65 75
l48 -26l30 87l53 -14l3 8q4 16 -14 74zM660 326l-33 -80l-12 3l27 83zM619 212l-17 -18l-5 14l12 10zM588 218q-18 0 -30 54l-16 -54l-12 -1l31 109l22 -70l26 76l11 -6zM516 218l-8 5q-2 26 -10 26q-10 0 -28 -26h-16q12 28 27.5 55t36.5 53q3 3 12 3q13 0 9 -34zM478 332
l-35 -107l-21 -8l40 110zM407 214q-19 0 -31 52l-15 -51l-13 -3l30 110l24 -70l24 75l12 -5zM362 290q-33 -76 -53 -76q-5 -1 -8 -1.5t-5 -0.5q-23 0 -21 18q21 73 57 96h3h5q23 0 22 -36zM298 330l-9 -27q-5 3 -7 3q-10 0 -25 -16q-18 -21 -24 -44q-8 -21 9 -21
q4 0 7.5 0.5t8.5 1.5l-4 -18q-17 -5 -18 -5q-23 0 -15 48q-1 0 1 8l2 6q15 52 74 64zM234 327l-36 -107l-20 -8l41 111zM518 272l1 37l-25 -37h24zM342 275q1 10 0 12q0 15 -9 15q-12 0 -33 -36l-2 -7q-8 -26 5 -26q5 0 23 9q5 9 9 17t7 16z" />
    <glyph glyph-name="FL00B7h" unicode="&#xb6;" horiz-adv-x="493" 
d="M566 326l-33 -80l-12 3l27 83zM525 212l-17 -18l-6 14l12 10zM494 218q-18 0 -31 54l-16 -54l-12 -1l31 109l23 -70l25 76l12 -6zM422 218l-8 5q-2 26 -11 26q-10 0 -27 -26h-16q11 28 26.5 55t36.5 53q4 3 12 3q14 0 10 -34zM384 332l-35 -107l-21 -8l39 110zM313 214
q-19 0 -31 52l-16 -51l-12 -3l30 110l24 -70l24 75l12 -5zM267 290q-31 -76 -53 -76q-10 -2 -12 -2q-23 0 -21 18q19 72 57 96h3h5q24 0 21 -36zM204 330l-10 -27q-3 3 -7 3q-9 0 -25 -16q-18 -21 -24 -44q-6 -21 10 -21q5 0 15 2l-4 -18q-15 -5 -17 -5q-22 0 -16 48
q0 3 2 8l2 6q13 52 74 64zM139 327l-35 -107l-20 -8l41 111zM423 272l2 37l-26 -37h24zM247 275q3 10 1 12q0 15 -10 15q-13 0 -32 -36l-3 -7q-8 -26 6 -26q5 0 22 9q5 9 9.5 17t6.5 16z" />
    <glyph glyph-name="FL00B9h" unicode="&#xb7;" horiz-adv-x="146" 
d="M105 282q7 25 26 42t41 17q17 0 27.5 -11.5t10.5 -28.5q0 -11 -4 -19q-7 -25 -27 -42t-41 -17q-17 0 -26.5 11t-9.5 28q0 6 0.5 11t2.5 9z" />
    <glyph glyph-name="FL00B8h" unicode="&#xb8;" horiz-adv-x="141" 
d="M-124 -116l98 92h42l9 30h95l-35 -122h-209z" />
    <glyph glyph-name="FL00BBh" unicode="&#xbb;" horiz-adv-x="246" 
d="M151 279l-37 37l27 91l64 -69q2 -3 4 -8t0 -10l-18 -62q-2 -8 -11.5 -18t-16.5 -16l-99 -81l24 82zM259 280l-37 37l27 91l64 -69q2 -3 4.5 -8t0.5 -10l-19 -62q-2 -8 -11.5 -18t-16.5 -16l-99 -81l24 82z" />
    <glyph glyph-name="FL00BFh" unicode="&#xbf;" horiz-adv-x="523" 
d="M566 360h-124v-1q-2 -3 -14 -13.5t-37 -10.5h-119q-24 0 -52 -15t-55.5 -38.5t-51 -51.5t-38.5 -53q-13 -22 -19.5 -48.5t-6.5 -52.5q0 -32 11 -54t37 -22h353q10 13 23 29.5t26 34.5t25 36.5t20 35.5h-318q-8 0 -8 11q0 7 2.5 15t6.5 13l3 5q0 1 5 4.5t8 5.5q5 4 15 9.5
t11 5.5h111q21 0 48 15.5t53.5 39t49 50.5t35.5 50zM603 460q4 13 4 24q0 20 -11.5 33t-32.5 13q-26 0 -49 -20.5t-32 -49.5q-4 -8 -4 -23q0 -21 11.5 -34.5t32.5 -13.5q26 0 49.5 21t31.5 50z" />
    <glyph glyph-name="FL00C0h" unicode="&#xc0;" 
d="M268 134h162l-28 235l-134 -225v-10zM447 0l-17 113q-2 -6 -11.5 -23t-22 -36t-24.5 -35t-18 -19h-338q2 8 2 7v3l288 460q2 6 9 16t15.5 19.5t17 17t14.5 7.5h134q8 0 14.5 -11t11.5 -27t8.5 -33.5t6.5 -29.5l53 -429h-143zM481 665q0 -10 2 -20.5t-2 -24.5
q-3 -9 -7 -16.5t-11 -11.5l-5 -4q0 -2 -8 -2q-12 0 -24 10t-16 23l-5 23q-2 6 -3 12t1 13q9 25 30 42q16 8 22 8q9 0 13 -9.5t6 -20.5z" />
    <glyph glyph-name="FL00C1h" unicode="&#xc1;" 
d="M268 134h162l-28 235l-134 -225v-10zM447 0l-17 113q-2 -6 -11.5 -23t-22 -36t-24.5 -35t-18 -19h-338q2 8 2 7v3l288 460q2 6 9 16t15.5 19.5t17 17t14.5 7.5h134q8 0 14.5 -11t11.5 -27t8.5 -33.5t6.5 -29.5l53 -429h-143zM428 666l19 22q9 11 18.5 20.5t18.5 9.5
q8 0 18 -8q13 -18 5 -42q-2 -7 -6.5 -13t-9.5 -12l-18 -23q-11 -13 -29.5 -23t-29.5 -10q-8 0 -8 2l-3 4q-4 4 -3.5 11.5t2.5 16.5q5 14 13 24.5t13 20.5z" />
    <glyph glyph-name="FL00C2h" unicode="&#xc2;" 
d="M268 134h162l-28 235l-134 -225v-10zM447 0l-17 113q-2 -6 -11.5 -23t-22 -36t-24.5 -35t-18 -19h-338q2 8 2 7v3l288 460q2 6 9 16t15.5 19.5t17 17t14.5 7.5h134q8 0 14.5 -11t11.5 -27t8.5 -33.5t6.5 -29.5l53 -429h-143zM454 652l-46 -59q-74 -1 -73 0l86 105
q4 3 8 7.5t9 4.5h49q7 0 13 -8.5t9 -14.5l37 -94h-65z" />
    <glyph glyph-name="FL00C3h" unicode="&#xc3;" 
d="M268 134h162l-28 235l-134 -225v-10zM447 0l-17 113q-2 -6 -11.5 -23t-22 -36t-24.5 -35t-18 -19h-338q2 8 2 7v3l288 460q2 6 9 16t15.5 19.5t17 17t14.5 7.5h134q8 0 14.5 -11t11.5 -27t8.5 -33.5t6.5 -29.5l53 -429h-143zM506 651l47 59h73l-3 -4.5t-22.5 -27.5
t-60.5 -73q-3 -3 -8 -7.5t-10 -4.5h-65l-27 59l-46 -59h-73l86 105q4 3 8.5 7.5t8.5 4.5h66z" />
    <glyph glyph-name="FL00C4h" unicode="&#xc4;" 
d="M268 134h162l-28 235l-134 -225v-10zM447 0l-17 113q-2 -6 -11.5 -23t-22 -36t-24.5 -35t-18 -19h-338q2 8 2 7v3l288 460q2 6 9 16t15.5 19.5t17 17t14.5 7.5h134q8 0 14.5 -11t11.5 -27t8.5 -33.5t6.5 -29.5l53 -429h-143zM335 653q8 25 27 42t40 17q22 0 32 -17t3 -42
q-8 -25 -27.5 -42t-41.5 -17t-31 17t-2 42zM582 653q-8 -25 -27.5 -42t-40.5 -17q-22 0 -32 17t-2 42t27 42t41 17t31.5 -17t2.5 -42z" />
    <glyph glyph-name="FL00C5h" unicode="&#xc5;" 
d="M268 134h162l-28 235l-134 -225v-10zM447 0l-17 113q-2 -6 -11.5 -23t-22 -36t-24.5 -35t-18 -19h-338q2 8 2 7v3l288 460q2 6 9 16t15.5 19.5t17 17t14.5 7.5h134q8 0 14.5 -11t11.5 -27t8.5 -33.5t6.5 -29.5l53 -429h-143zM409 653q7 25 26 42t41 17t32 -17t2 -42
q-7 -25 -27 -42t-41 -17q-22 0 -31.5 17t-1.5 42z" />
    <glyph glyph-name="FL00C6h" unicode="&#xc6;" horiz-adv-x="930" 
d="M603 530h456q-5 -14 -18.5 -36.5t-28.5 -44.5t-28.5 -38t-20.5 -16h-246l-46 -157l76 92h185l-114 -135h-160l-17 -60h306q-1 -2 -4 -8.5t-6.5 -13.5l-6.5 -13t-4 -7q-7 -12 -19.5 -28t-24.5 -30.5t-21 -24.5t-10 -10h-404l-17 113q-2 -6 -11.5 -23t-22 -36t-24.5 -35
t-18 -19h-338q2 8 2 7v3l288 460q2 6 9 16t15.5 19.5t17 17t14.5 7.5h134q7 0 14 -11t12.5 -27t9.5 -33t5 -30l11 -89zM268 144v-10h162l-28 235z" />
    <glyph glyph-name="FL00C7h" unicode="&#xc7;" horiz-adv-x="505" 
d="M86 -116h209l34 117q3 -1 9 -1h9h19h64q31 30 54 65.5t42 69.5h-192q-14 0 -28.5 12t-27 30t-20.5 39.5t-8 40.5q0 8 2 18.5t5 22.5q5 17 13 34.5t18 31.5t21.5 22.5t24.5 8.5h208q29 30 52.5 63.5t46.5 71.5h-331q-42 0 -80 -26.5t-66.5 -68.5t-45 -93t-16.5 -99
t10.5 -85t28.5 -64t43 -45t55 -29l-13 -44h-42z" />
    <glyph glyph-name="FL00C8h" unicode="&#xc8;" horiz-adv-x="500" 
d="M22 0l155 530h456q-6 -14 -19 -36.5t-28 -44.5t-29 -38t-20 -16h-247l-45 -157l76 92h185l-115 -135h-159l-18 -60h307q-1 -2 -4 -8.5t-6.5 -13.5l-6.5 -13t-4 -7q-7 -12 -19.5 -28t-24.5 -30.5t-21 -24.5t-10 -10h-403zM440 692l6 -22q0 -10 2 -20.5t-2 -24.5
q-3 -9 -6.5 -16.5t-10.5 -11.5l-5 -4q-6 -2 -9 -2q-11 0 -23 10t-17 23l-5 23q-5 13 -1 25q6 26 29 42q18 8 23 8q9 0 13 -9.5t6 -20.5z" />
    <glyph glyph-name="FL00C9h" unicode="&#xc9;" horiz-adv-x="500" 
d="M22 0l155 530h456q-6 -14 -19 -36.5t-28 -44.5t-29 -38t-20 -16h-247l-45 -157l76 92h185l-115 -135h-159l-18 -60h307q-1 -2 -4 -8.5t-6.5 -13.5l-6.5 -13t-4 -7q-7 -12 -19.5 -28t-24.5 -30.5t-21 -24.5t-10 -10h-403zM394 671l20 22q9 11 18 20.5t18 9.5q8 0 18 -8
q13 -17 6 -42q-2 -7 -6.5 -13t-9.5 -12l-20 -23q-11 -12 -29.5 -22.5t-29.5 -10.5q-5 0 -7 2l-2 4q-4 4 -4 11q0 5 0.5 9t2.5 8q4 14 11.5 24.5t13.5 20.5z" />
    <glyph glyph-name="FL00CAh" unicode="&#xca;" horiz-adv-x="500" 
d="M22 0l155 530h456q-6 -14 -19 -36.5t-28 -44.5t-29 -38t-20 -16h-247l-45 -157l76 92h185l-115 -135h-159l-18 -60h307q-1 -2 -4 -8.5t-6.5 -13.5l-6.5 -13t-4 -7q-7 -12 -19.5 -28t-24.5 -30.5t-21 -24.5t-10 -10h-403zM422 655l-47 -59h-73l86 105q5 3 9.5 7.5t8.5 4.5
h50q7 0 12 -8.5t8 -14.5l38 -94h-66z" />
    <glyph glyph-name="FL00CBh" unicode="&#xcb;" horiz-adv-x="500" 
d="M22 0l155 530h456q-6 -14 -19 -36.5t-28 -44.5t-29 -38t-20 -16h-247l-45 -157l76 92h185l-115 -135h-159l-18 -60h307q-1 -2 -4 -8.5t-6.5 -13.5l-6.5 -13t-4 -7q-7 -12 -19.5 -28t-24.5 -30.5t-21 -24.5t-10 -10h-403zM313 653q7 25 26 42t41 17t32 -17t2 -42
q-7 -25 -27 -42t-41 -17q-22 0 -31.5 17t-1.5 42zM559 653q-7 -25 -26.5 -42t-41.5 -17t-31.5 17t-1.5 42q7 25 26.5 42t41.5 17q21 0 31 -17t2 -42z" />
    <glyph glyph-name="FL00CCh" unicode="&#xcc;" horiz-adv-x="198" 
d="M314 666q0 -10 2 -20.5t-2 -24.5q-3 -9 -6.5 -16.5t-10.5 -11.5l-6 -4q-2 -2 -8 -2q-11 0 -24 10t-16 23l-5 23q-5 13 -2 25q9 25 30 42q16 8 22 8q9 0 13 -9.5t6 -20.5zM177 530h153l-154 -530h-154z" />
    <glyph glyph-name="FL00CDh" unicode="&#xcd;" horiz-adv-x="198" 
d="M176 0h-154l155 530h153zM259 668l19 22q9 11 18.5 20.5t18.5 9.5q8 0 18 -8q14 -17 5 -42q-2 -7 -6.5 -13t-9.5 -12l-19 -23q-11 -12 -29.5 -22.5t-29.5 -10.5q-5 0 -7 2l-3 4q-4 6 -4 11q0 10 4 17q4 14 11 24.5t14 20.5z" />
    <glyph glyph-name="FL00CEh" unicode="&#xce;" horiz-adv-x="198" 
d="M176 0h-154l155 530h153zM286 654l-46 -59h-73l86 105q3 3 8 7.5t9 4.5h50q7 0 12.5 -8.5t8.5 -14.5l37 -94h-65z" />
    <glyph glyph-name="FL00CFh" unicode="&#xcf;" horiz-adv-x="198" 
d="M176 0h-154l155 530h153zM168 653q8 25 26.5 42t40.5 17t32 -17t3 -42q-8 -25 -27.5 -42t-41.5 -17t-31.5 17t-1.5 42zM414 653q-7 -25 -26.5 -42t-41.5 -17q-21 0 -31 17t-2 42q7 25 26.5 42t41.5 17t31.5 -17t1.5 -42z" />
    <glyph glyph-name="FL00D0h" unicode="&#xd0;" horiz-adv-x="618" 
d="M654 243q-39 -65 -77 -111.5t-78.5 -75.5t-87 -42.5t-101.5 -13.5h-200l57 195h-96l115 135h20l59 200h348q41 0 63 -27t26.5 -68.5t-8 -92.5t-40.5 -99zM344 195h-22l-17 -60h24q18 0 43.5 12t52 30t49 39.5t33.5 40.5q5 8 10.5 18t10.5 23q5 16 7.5 30t2.5 27
q0 17 -6.5 28.5t-21.5 11.5h-129l-19 -65h96z" />
    <glyph glyph-name="FL00D1h" unicode="&#xd1;" horiz-adv-x="523" 
d="M176 0h-154l155 530h193l46 -298l87 298h152l-154 -530h-194l-45 298zM474 651l46 59h73l-3 -4.5t-22.5 -27.5t-60.5 -73q-3 -3 -8 -7.5t-9 -4.5h-66l-26 59l-47 -59h-73l86 105q5 3 9 7.5t9 4.5h65z" />
    <glyph glyph-name="FL00D2h" unicode="&#xd2;" horiz-adv-x="577" 
d="M244 257q-2 -19 2.5 -40.5t14.5 -39.5t23.5 -30t29.5 -12h52q9 0 24 8.5t31 22.5t29.5 31.5t21.5 34.5q7 13 9 22l3 10q2 10 2 9q0 10 0.5 19.5t0.5 20.5q0 16 -3 30.5t-10.5 26t-20 18.5t-30.5 7h-65q-12 0 -27 -8.5t-29.5 -22.5t-27 -31.5t-19.5 -34.5q-4 -12 -7 -22.5
t-4 -18.5zM638 287q-6 -48 -30 -99t-60 -93t-80.5 -68.5t-92.5 -26.5h-80q-49 0 -89.5 11t-68.5 38.5t-40 74.5t-4 119q6 48 29.5 99t58 93t76 68.5t83.5 26.5h106q49 0 88 -13.5t65 -42.5t37 -75t2 -112zM497 690l6 -22q0 -10 2.5 -20.5t-2.5 -24.5q-3 -9 -7 -16.5
t-10 -11.5l-5 -4q-2 -2 -9 -2q-11 0 -23 10t-17 23l-5 23q-2 6 -2.5 12t1.5 13q4 13 11.5 23.5t17.5 18.5q18 8 23 8q9 0 13 -9.5t6 -20.5z" />
    <glyph glyph-name="FL00D3h" unicode="&#xd3;" horiz-adv-x="577" 
d="M244 257q-2 -19 2.5 -40.5t14.5 -39.5t23.5 -30t29.5 -12h52q9 0 24 8.5t31 22.5t29.5 31.5t21.5 34.5q7 13 9 22l3 10q2 10 2 9q0 10 0.5 19.5t0.5 20.5q0 16 -3 30.5t-10.5 26t-20 18.5t-30.5 7h-65q-12 0 -27 -8.5t-29.5 -22.5t-27 -31.5t-19.5 -34.5q-4 -12 -7 -22.5
t-4 -18.5zM638 287q-6 -48 -30 -99t-60 -93t-80.5 -68.5t-92.5 -26.5h-80q-49 0 -89.5 11t-68.5 38.5t-40 74.5t-4 119q6 48 29.5 99t58 93t76 68.5t83.5 26.5h106q49 0 88 -13.5t65 -42.5t37 -75t2 -112zM446 668l19 22q9 11 18.5 20.5t18.5 9.5t17 -8q13 -17 6 -42
q-2 -7 -6.5 -13t-9.5 -12l-19 -23q-11 -12 -29.5 -22.5t-30.5 -10.5q-5 0 -7 2l-2 4q-4 4 -4 11q0 9 3 17q5 14 12 24.5t14 20.5z" />
    <glyph glyph-name="FL00D4h" unicode="&#xd4;" horiz-adv-x="577" 
d="M244 257q-2 -19 2.5 -40.5t14.5 -39.5t23.5 -30t29.5 -12h52q9 0 24 8.5t31 22.5t29.5 31.5t21.5 34.5q7 13 9 22l3 10q2 10 2 9q0 10 0.5 19.5t0.5 20.5q0 16 -3 30.5t-10.5 26t-20 18.5t-30.5 7h-65q-12 0 -27 -8.5t-29.5 -22.5t-27 -31.5t-19.5 -34.5q-4 -12 -7 -22.5
t-4 -18.5zM638 287q-6 -48 -30 -99t-60 -93t-80.5 -68.5t-92.5 -26.5h-80q-49 0 -89.5 11t-68.5 38.5t-40 74.5t-4 119q6 48 29.5 99t58 93t76 68.5t83.5 26.5h106q49 0 88 -13.5t65 -42.5t37 -75t2 -112zM464 653l-47 -59h-73l86 105q4 3 8.5 7.5t9.5 4.5h50q6 0 11.5 -8.5
t8.5 -14.5l37 -94h-65z" />
    <glyph glyph-name="FL00D5h" unicode="&#xd5;" horiz-adv-x="577" 
d="M638 287q-6 -48 -30 -99t-60 -93t-80.5 -68.5t-92.5 -26.5h-80q-49 0 -89.5 11t-68.5 38.5t-40 74.5t-4 119q6 48 29.5 99t58 93t76 68.5t83.5 26.5h106q49 0 88 -13.5t65 -42.5t37 -75t2 -112zM244 257q-2 -19 2.5 -40.5t14.5 -39.5t23.5 -30t29.5 -12h52q9 0 24 8.5
t31 22.5t29.5 31.5t21.5 34.5q7 13 9 22l3 10q2 10 2 9q0 10 0.5 19.5t0.5 20.5q0 16 -3 30.5t-10.5 26t-20 18.5t-30.5 7h-65q-12 0 -27 -8.5t-29.5 -22.5t-27 -31.5t-19.5 -34.5q-4 -12 -7 -22.5t-4 -18.5zM502 651l47 59h73l-3 -4.5t-22.5 -27.5t-60.5 -73q-3 -3 -8 -7.5
t-10 -4.5h-65l-27 59l-46 -59h-73l86 105q4 3 8.5 7.5t8.5 4.5h66z" />
    <glyph glyph-name="FL00D6h" unicode="&#xd6;" horiz-adv-x="577" 
d="M244 257q-2 -19 2.5 -40.5t14.5 -39.5t23.5 -30t29.5 -12h52q9 0 24 8.5t31 22.5t29.5 31.5t21.5 34.5q7 13 9 22l3 10q2 10 2 9q0 10 0.5 19.5t0.5 20.5q0 16 -3 30.5t-10.5 26t-20 18.5t-30.5 7h-65q-12 0 -27 -8.5t-29.5 -22.5t-27 -31.5t-19.5 -34.5q-4 -12 -7 -22.5
t-4 -18.5zM638 287q-6 -48 -30 -99t-60 -93t-80.5 -68.5t-92.5 -26.5h-80q-49 0 -89.5 11t-68.5 38.5t-40 74.5t-4 119q6 48 29.5 99t58 93t76 68.5t83.5 26.5h106q49 0 88 -13.5t65 -42.5t37 -75t2 -112zM350 653q7 25 26 42t41 17t32 -17t2 -42q-7 -25 -27 -42t-42 -17
q-21 0 -30.5 17t-1.5 42zM596 653q-8 -25 -27 -42t-41 -17t-31.5 17t-2.5 42q8 25 27.5 42t40.5 17q22 0 32 -17t2 -42z" />
    <glyph glyph-name="FL00D7h" unicode="&#xd7;" horiz-adv-x="319" 
d="M150 125l65 65l27 -65h99l-55 137l134 136h-99l-63 -64l-28 64h-99l55 -136l-136 -137h100z" />
    <glyph glyph-name="FL00D8h" unicode="&#xd8;" horiz-adv-x="577" 
d="M638 287q-6 -48 -30 -99t-60 -93t-80.5 -68.5t-92.5 -26.5h-80q-49 0 -89.5 11t-68.5 38.5t-40 74.5t-4 119q6 48 29.5 99t58 93t76 68.5t83.5 26.5h106q49 0 88 -13.5t65 -42.5t37 -75t2 -112zM486 273q1 25 0 54l-202 -180q13 -12 30 -12h52q9 0 24 8.5t31 22.5
t29.5 31.5t21.5 34.5q7 13 9 22l3 10q2 10 2 9zM244 257q-3 -21 2 -45l203 178q-17 5 -26 5h-65q-12 0 -27 -8.5t-29.5 -22.5t-27 -31.5t-19.5 -34.5q-4 -12 -7 -22.5t-4 -18.5z" />
    <glyph glyph-name="FL00D9h" unicode="&#xd9;" horiz-adv-x="546" 
d="M114 308l63 222h151q-28 -102 -43 -158.5t-22.5 -84.5t-9 -35.5t-1.5 -10.5q-5 -48 5.5 -77t40.5 -29h39q19 0 35.5 10t29 25t22 32t15.5 31l87 297h152l-72 -247q-20 -69 -40.5 -121.5t-47 -88.5t-61.5 -54.5t-83 -18.5h-93q-113 0 -160 44.5t-31 151.5q5 26 10.5 52
t13.5 60zM482 689l7 -22q0 -10 2 -20.5t-3 -24.5q-2 -9 -6 -16.5t-11 -11.5l-5 -4q-6 -2 -8 -2q-12 0 -24 10t-16 23l-6 23q-2 6 -3 12t1 13q9 26 31 42q16 8 22 8q9 0 13 -9.5t6 -20.5z" />
    <glyph glyph-name="FL00DAh" unicode="&#xda;" horiz-adv-x="546" 
d="M114 308l63 222h151q-28 -102 -43 -158.5t-22.5 -84.5t-9 -35.5t-1.5 -10.5q-5 -48 5.5 -77t40.5 -29h39q19 0 35.5 10t29 25t22 32t15.5 31l87 297h152l-72 -247q-20 -69 -40.5 -121.5t-47 -88.5t-61.5 -54.5t-83 -18.5h-93q-113 0 -160 44.5t-31 151.5q5 26 10.5 52
t13.5 60zM435 667l19 22q9 11 18.5 20.5t18.5 9.5q8 0 18 -8q13 -16 5 -42q-2 -7 -6.5 -13t-9.5 -12l-19 -23q-11 -12 -29.5 -22.5t-29.5 -10.5q-7 0 -7 2l-3 4q-5 4 -4 11.5t3 16.5q4 14 11.5 24.5t14.5 20.5z" />
    <glyph glyph-name="FL00DBh" unicode="&#xdb;" horiz-adv-x="546" 
d="M114 308l63 222h151q-28 -102 -43 -158.5t-22.5 -84.5t-9 -35.5t-1.5 -10.5q-5 -48 5.5 -77t40.5 -29h39q19 0 35.5 10t29 25t22 32t15.5 31l87 297h152l-72 -247q-20 -69 -40.5 -121.5t-47 -88.5t-61.5 -54.5t-83 -18.5h-93q-113 0 -160 44.5t-31 151.5q5 26 10.5 52
t13.5 60zM450 653l-46 -59h-73l86 105q4 3 8.5 7.5t8.5 4.5h50q7 0 12.5 -8.5t8.5 -14.5l37 -94h-65z" />
    <glyph glyph-name="FL00DCh" unicode="&#xdc;" horiz-adv-x="546" 
d="M338 652q7 25 26.5 42t41.5 17q21 0 31 -17t2 -42q-7 -25 -26.5 -42t-41.5 -17t-31.5 17t-1.5 42zM114 308l63 222h151q-28 -102 -43 -158.5t-22.5 -84.5t-9 -35.5t-1.5 -10.5q-5 -48 5.5 -77t40.5 -29h39q19 0 35.5 10t29 25t22 32t15.5 31l87 297h152l-72 -247
q-20 -69 -40.5 -121.5t-47 -88.5t-61.5 -54.5t-83 -18.5h-93q-113 0 -160 44.5t-31 151.5q5 26 10.5 52t13.5 60zM584 652q-8 -25 -26.5 -42t-40.5 -17t-32 17t-3 42q8 25 27.5 42t41.5 17t31.5 -17t1.5 -42z" />
    <glyph glyph-name="FL00DDh" unicode="&#xdd;" horiz-adv-x="525" 
d="M259 252l-90 278h171l40 -125l114 125h171l-252 -278l-74 -252h-153zM427 667l19 22q9 11 18.5 20.5t18.5 9.5q8 0 18 -8q13 -16 5 -42q-2 -7 -6.5 -13t-9.5 -12l-19 -23q-11 -12 -29.5 -22.5t-29.5 -10.5q-7 0 -7 2l-3 4q-5 4 -4 11.5t3 16.5q4 14 11.5 24.5t14.5 20.5z
" />
    <glyph glyph-name="FL00DEh" unicode="&#xde;" horiz-adv-x="544" 
d="M22 0l155 530h153l-28 -100h213q21 0 36 -15.5t24.5 -38t14.5 -48t6 -45.5q0 -42 -16.5 -77t-41 -60.5t-54.5 -39.5t-57 -14h-225l-26 -92h-154zM262 294l-44 -152l76 85h128q1 0 4 4.5t6 10.5t5.5 11.5t3.5 8.5l1 5v5q-3 5 -8.5 13.5t-7.5 8.5h-164z" />
    <glyph glyph-name="FL00DFh" unicode="&#xdf;" horiz-adv-x="537" 
d="M-18 -141h153l155 535h150q2 0 8 -8.5t8 -13.5l0.5 -2t1.5 -3l-2 -5q-1 -3 -4 -8.5t-6 -11.5t-6 -10.5l-3 -4.5h-29l-123 -135h117q0 -7 -0.5 -14t-2.5 -10l-1 -5q-1 -1 -2.5 -3l-1.5 -2q-2 -3 -6.5 -6.5t-9.5 -7t-9 -6l-4 -2.5h-91q-23 -29 -42 -63.5t-40 -72.5h183
q47 0 76.5 7.5t48 23t30 40.5t23.5 60l3 11q5 13 9 31.5t4 32.5q-1 20 -9 31t-11 19q11 6 22 19t19.5 30.5t14 37t5.5 38.5v2q0 20 -5 45.5t-14.5 48t-24.5 38t-36 15.5h-308q-24 -32 -45.5 -65t-38.5 -67z" />
    <glyph glyph-name="FL00E0h" unicode="&#xe0;" 
d="M268 134h162l-28 235l-134 -225v-10zM447 0l-17 113q-2 -6 -11.5 -23t-22 -36t-24.5 -35t-18 -19h-338q2 8 2 7v3l288 460q2 6 9 16t15.5 19.5t17 17t14.5 7.5h134q8 0 14.5 -11t11.5 -27t8.5 -33.5t6.5 -29.5l53 -429h-143zM481 665q0 -10 2 -20.5t-2 -24.5
q-3 -9 -7 -16.5t-11 -11.5l-5 -4q0 -2 -8 -2q-12 0 -24 10t-16 23l-5 23q-2 6 -3 12t1 13q9 25 30 42q16 8 22 8q9 0 13 -9.5t6 -20.5z" />
    <glyph glyph-name="FL00E1h" unicode="&#xe1;" 
d="M268 134h162l-28 235l-134 -225v-10zM447 0l-17 113q-2 -6 -11.5 -23t-22 -36t-24.5 -35t-18 -19h-338q2 8 2 7v3l288 460q2 6 9 16t15.5 19.5t17 17t14.5 7.5h134q8 0 14.5 -11t11.5 -27t8.5 -33.5t6.5 -29.5l53 -429h-143zM428 666l19 22q9 11 18.5 20.5t18.5 9.5
q8 0 18 -8q13 -18 5 -42q-2 -7 -6.5 -13t-9.5 -12l-18 -23q-11 -13 -29.5 -23t-29.5 -10q-8 0 -8 2l-3 4q-4 4 -3.5 11.5t2.5 16.5q5 14 13 24.5t13 20.5z" />
    <glyph glyph-name="FL00E2h" unicode="&#xe2;" 
d="M268 134h162l-28 235l-134 -225v-10zM447 0l-17 113q-2 -6 -11.5 -23t-22 -36t-24.5 -35t-18 -19h-338q2 8 2 7v3l288 460q2 6 9 16t15.5 19.5t17 17t14.5 7.5h134q8 0 14.5 -11t11.5 -27t8.5 -33.5t6.5 -29.5l53 -429h-143zM454 652l-46 -59q-74 -1 -73 0l86 105
q4 3 8 7.5t9 4.5h49q7 0 13 -8.5t9 -14.5l37 -94h-65z" />
    <glyph glyph-name="FL00E3h" unicode="&#xe3;" 
d="M268 134h162l-28 235l-134 -225v-10zM447 0l-17 113q-2 -6 -11.5 -23t-22 -36t-24.5 -35t-18 -19h-338q2 8 2 7v3l288 460q2 6 9 16t15.5 19.5t17 17t14.5 7.5h134q8 0 14.5 -11t11.5 -27t8.5 -33.5t6.5 -29.5l53 -429h-143zM506 651l47 59h73l-3 -4.5t-22.5 -27.5
t-60.5 -73q-3 -3 -8 -7.5t-10 -4.5h-65l-27 59l-46 -59h-73l86 105q4 3 8.5 7.5t8.5 4.5h66z" />
    <glyph glyph-name="FL00E4h" unicode="&#xe4;" 
d="M268 134h162l-28 235l-134 -225v-10zM447 0l-17 113q-2 -6 -11.5 -23t-22 -36t-24.5 -35t-18 -19h-338q2 8 2 7v3l288 460q2 6 9 16t15.5 19.5t17 17t14.5 7.5h134q8 0 14.5 -11t11.5 -27t8.5 -33.5t6.5 -29.5l53 -429h-143zM335 653q8 25 27 42t40 17q22 0 32 -17t3 -42
q-8 -25 -27.5 -42t-41.5 -17t-31 17t-2 42zM582 653q-8 -25 -27.5 -42t-40.5 -17q-22 0 -32 17t-2 42t27 42t41 17t31.5 -17t2.5 -42z" />
    <glyph glyph-name="FL00E5h" unicode="&#xe5;" 
d="M268 134h162l-28 235l-134 -225v-10zM447 0l-17 113q-2 -6 -11.5 -23t-22 -36t-24.5 -35t-18 -19h-338q2 8 2 7v3l288 460q2 6 9 16t15.5 19.5t17 17t14.5 7.5h134q8 0 14.5 -11t11.5 -27t8.5 -33.5t6.5 -29.5l53 -429h-143zM409 653q7 25 26 42t41 17t32 -17t2 -42
q-7 -25 -27 -42t-41 -17q-22 0 -31.5 17t-1.5 42z" />
    <glyph glyph-name="FL00E6h" unicode="&#xe6;" horiz-adv-x="930" 
d="M603 530h456q-5 -14 -18.5 -36.5t-28.5 -44.5t-28.5 -38t-20.5 -16h-246l-46 -157l76 92h185l-114 -135h-160l-17 -60h306q-1 -2 -4 -8.5t-6.5 -13.5l-6.5 -13t-4 -7q-7 -12 -19.5 -28t-24.5 -30.5t-21 -24.5t-10 -10h-404l-17 113q-2 -6 -11.5 -23t-22 -36t-24.5 -35
t-18 -19h-338q2 8 2 7v3l288 460q2 6 9 16t15.5 19.5t17 17t14.5 7.5h134q7 0 14 -11t12.5 -27t9.5 -33t5 -30l11 -89zM268 144v-10h162l-28 235z" />
    <glyph glyph-name="FL00E7h" unicode="&#xe7;" horiz-adv-x="505" 
d="M86 -116h209l34 117q3 -1 9 -1h9h19h64q31 30 54 65.5t42 69.5h-192q-14 0 -28.5 12t-27 30t-20.5 39.5t-8 40.5q0 8 2 18.5t5 22.5q5 17 13 34.5t18 31.5t21.5 22.5t24.5 8.5h208q29 30 52.5 63.5t46.5 71.5h-331q-42 0 -80 -26.5t-66.5 -68.5t-45 -93t-16.5 -99
t10.5 -85t28.5 -64t43 -45t55 -29l-13 -44h-42z" />
    <glyph glyph-name="FL00E8h" unicode="&#xe8;" horiz-adv-x="500" 
d="M22 0l155 530h456q-6 -14 -19 -36.5t-28 -44.5t-29 -38t-20 -16h-247l-45 -157l76 92h185l-115 -135h-159l-18 -60h307q-1 -2 -4 -8.5t-6.5 -13.5l-6.5 -13t-4 -7q-7 -12 -19.5 -28t-24.5 -30.5t-21 -24.5t-10 -10h-403zM440 692l6 -22q0 -10 2 -20.5t-2 -24.5
q-3 -9 -6.5 -16.5t-10.5 -11.5l-5 -4q-6 -2 -9 -2q-11 0 -23 10t-17 23l-5 23q-5 13 -1 25q6 26 29 42q18 8 23 8q9 0 13 -9.5t6 -20.5z" />
    <glyph glyph-name="FL00E9h" unicode="&#xe9;" horiz-adv-x="500" 
d="M22 0l155 530h456q-6 -14 -19 -36.5t-28 -44.5t-29 -38t-20 -16h-247l-45 -157l76 92h185l-115 -135h-159l-18 -60h307q-1 -2 -4 -8.5t-6.5 -13.5l-6.5 -13t-4 -7q-7 -12 -19.5 -28t-24.5 -30.5t-21 -24.5t-10 -10h-403zM394 671l20 22q9 11 18 20.5t18 9.5q8 0 18 -8
q13 -17 6 -42q-2 -7 -6.5 -13t-9.5 -12l-20 -23q-11 -12 -29.5 -22.5t-29.5 -10.5q-5 0 -7 2l-2 4q-4 4 -4 11q0 5 0.5 9t2.5 8q4 14 11.5 24.5t13.5 20.5z" />
    <glyph glyph-name="FL00EAh" unicode="&#xea;" horiz-adv-x="500" 
d="M22 0l155 530h456q-6 -14 -19 -36.5t-28 -44.5t-29 -38t-20 -16h-247l-45 -157l76 92h185l-115 -135h-159l-18 -60h307q-1 -2 -4 -8.5t-6.5 -13.5l-6.5 -13t-4 -7q-7 -12 -19.5 -28t-24.5 -30.5t-21 -24.5t-10 -10h-403zM422 655l-47 -59h-73l86 105q5 3 9.5 7.5t8.5 4.5
h50q7 0 12 -8.5t8 -14.5l38 -94h-66z" />
    <glyph glyph-name="FL00EBh" unicode="&#xeb;" horiz-adv-x="500" 
d="M22 0l155 530h456q-6 -14 -19 -36.5t-28 -44.5t-29 -38t-20 -16h-247l-45 -157l76 92h185l-115 -135h-159l-18 -60h307q-1 -2 -4 -8.5t-6.5 -13.5l-6.5 -13t-4 -7q-7 -12 -19.5 -28t-24.5 -30.5t-21 -24.5t-10 -10h-403zM313 653q7 25 26 42t41 17t32 -17t2 -42
q-7 -25 -27 -42t-41 -17q-22 0 -31.5 17t-1.5 42zM559 653q-7 -25 -26.5 -42t-41.5 -17t-31.5 17t-1.5 42q7 25 26.5 42t41.5 17q21 0 31 -17t2 -42z" />
    <glyph glyph-name="FL00ECh" unicode="&#xec;" horiz-adv-x="198" 
d="M314 666q0 -10 2 -20.5t-2 -24.5q-3 -9 -6.5 -16.5t-10.5 -11.5l-6 -4q-2 -2 -8 -2q-11 0 -24 10t-16 23l-5 23q-5 13 -2 25q9 25 30 42q16 8 22 8q9 0 13 -9.5t6 -20.5zM177 530h153l-154 -530h-154z" />
    <glyph glyph-name="FL00EDh" unicode="&#xed;" horiz-adv-x="198" 
d="M176 0h-154l155 530h153zM259 668l19 22q9 11 18.5 20.5t18.5 9.5q8 0 18 -8q14 -17 5 -42q-2 -7 -6.5 -13t-9.5 -12l-19 -23q-11 -12 -29.5 -22.5t-29.5 -10.5q-5 0 -7 2l-3 4q-4 6 -4 11q0 10 4 17q4 14 11 24.5t14 20.5z" />
    <glyph glyph-name="FL00EEh" unicode="&#xee;" horiz-adv-x="198" 
d="M176 0h-154l155 530h153zM286 654l-46 -59h-73l86 105q3 3 8 7.5t9 4.5h50q7 0 12.5 -8.5t8.5 -14.5l37 -94h-65z" />
    <glyph glyph-name="FL00EFh" unicode="&#xef;" horiz-adv-x="198" 
d="M176 0h-154l155 530h153zM168 653q8 25 26.5 42t40.5 17t32 -17t3 -42q-8 -25 -27.5 -42t-41.5 -17t-31.5 17t-1.5 42zM414 653q-7 -25 -26.5 -42t-41.5 -17q-21 0 -31 17t-2 42q7 25 26.5 42t41.5 17t31.5 -17t1.5 -42z" />
    <glyph glyph-name="FL00F0h" unicode="&#xf0;" horiz-adv-x="517" 
d="M79 195q22 55 55 89.5t84 45.5h218q5 26 -1 45.5t-26 19.5h-208q-11 30 -15 63.5t-5 71.5h330q42 0 64.5 -26.5t27 -68.5t-8.5 -93t-42 -99q-42 -72 -92 -119t-103.5 -74.5t-107.5 -38.5t-103 -11q-29 0 -47 17t-26 45t-6.5 63t12.5 70zM264 203q-17 -3 -25 -11.5
t-17 -17.5l-2 -38h46q19 0 44 21t52 46h-98z" />
    <glyph glyph-name="FL00F1h" unicode="&#xf1;" horiz-adv-x="523" 
d="M176 0h-154l155 530h193l46 -298l87 298h152l-154 -530h-194l-45 298zM474 651l46 59h73l-3 -4.5t-22.5 -27.5t-60.5 -73q-3 -3 -8 -7.5t-9 -4.5h-66l-26 59l-47 -59h-73l86 105q5 3 9 7.5t9 4.5h65z" />
    <glyph glyph-name="FL00F2h" unicode="&#xf2;" horiz-adv-x="577" 
d="M244 257q-2 -19 2.5 -40.5t14.5 -39.5t23.5 -30t29.5 -12h52q9 0 24 8.5t31 22.5t29.5 31.5t21.5 34.5q7 13 9 22l3 10q2 10 2 9q0 10 0.5 19.5t0.5 20.5q0 16 -3 30.5t-10.5 26t-20 18.5t-30.5 7h-65q-12 0 -27 -8.5t-29.5 -22.5t-27 -31.5t-19.5 -34.5q-4 -12 -7 -22.5
t-4 -18.5zM638 287q-6 -48 -30 -99t-60 -93t-80.5 -68.5t-92.5 -26.5h-80q-49 0 -89.5 11t-68.5 38.5t-40 74.5t-4 119q6 48 29.5 99t58 93t76 68.5t83.5 26.5h106q49 0 88 -13.5t65 -42.5t37 -75t2 -112zM497 690l6 -22q0 -10 2.5 -20.5t-2.5 -24.5q-3 -9 -7 -16.5
t-10 -11.5l-5 -4q-2 -2 -9 -2q-11 0 -23 10t-17 23l-5 23q-2 6 -2.5 12t1.5 13q4 13 11.5 23.5t17.5 18.5q18 8 23 8q9 0 13 -9.5t6 -20.5z" />
    <glyph glyph-name="FL00F3h" unicode="&#xf3;" horiz-adv-x="577" 
d="M244 257q-2 -19 2.5 -40.5t14.5 -39.5t23.5 -30t29.5 -12h52q9 0 24 8.5t31 22.5t29.5 31.5t21.5 34.5q7 13 9 22l3 10q2 10 2 9q0 10 0.5 19.5t0.5 20.5q0 16 -3 30.5t-10.5 26t-20 18.5t-30.5 7h-65q-12 0 -27 -8.5t-29.5 -22.5t-27 -31.5t-19.5 -34.5q-4 -12 -7 -22.5
t-4 -18.5zM638 287q-6 -48 -30 -99t-60 -93t-80.5 -68.5t-92.5 -26.5h-80q-49 0 -89.5 11t-68.5 38.5t-40 74.5t-4 119q6 48 29.5 99t58 93t76 68.5t83.5 26.5h106q49 0 88 -13.5t65 -42.5t37 -75t2 -112zM446 668l19 22q9 11 18.5 20.5t18.5 9.5t17 -8q13 -17 6 -42
q-2 -7 -6.5 -13t-9.5 -12l-19 -23q-11 -12 -29.5 -22.5t-30.5 -10.5q-5 0 -7 2l-2 4q-4 4 -4 11q0 9 3 17q5 14 12 24.5t14 20.5z" />
    <glyph glyph-name="FL00F4h" unicode="&#xf4;" horiz-adv-x="577" 
d="M244 257q-2 -19 2.5 -40.5t14.5 -39.5t23.5 -30t29.5 -12h52q9 0 24 8.5t31 22.5t29.5 31.5t21.5 34.5q7 13 9 22l3 10q2 10 2 9q0 10 0.5 19.5t0.5 20.5q0 16 -3 30.5t-10.5 26t-20 18.5t-30.5 7h-65q-12 0 -27 -8.5t-29.5 -22.5t-27 -31.5t-19.5 -34.5q-4 -12 -7 -22.5
t-4 -18.5zM638 287q-6 -48 -30 -99t-60 -93t-80.5 -68.5t-92.5 -26.5h-80q-49 0 -89.5 11t-68.5 38.5t-40 74.5t-4 119q6 48 29.5 99t58 93t76 68.5t83.5 26.5h106q49 0 88 -13.5t65 -42.5t37 -75t2 -112zM464 653l-47 -59h-73l86 105q4 3 8.5 7.5t9.5 4.5h50q6 0 11.5 -8.5
t8.5 -14.5l37 -94h-65z" />
    <glyph glyph-name="FL00F5h" unicode="&#xf5;" horiz-adv-x="577" 
d="M638 287q-6 -48 -30 -99t-60 -93t-80.5 -68.5t-92.5 -26.5h-80q-44 0 -81.5 9t-65 31t-43 59t-15.5 93q0 13 0.5 25t2.5 23v3q6 48 29.5 99t58 93t76 68.5t83.5 26.5h106q43 0 79 -10.5t62 -33t40.5 -58.5t14.5 -86q0 -13 -1 -26.5t-3 -28.5zM244 257q-1 -1 -1 -7v-6
q0 -18 5.5 -37.5t15.5 -35.5t22.5 -26t27.5 -10h52q9 0 24 8.5t31 22.5t29.5 31.5t21.5 34.5q7 13 9 22l3 10q2 10 2 9q0 8 0.5 16.5t0.5 17.5q0 16 -2.5 32t-9.5 28.5t-19.5 20t-32.5 7.5h-65q-12 0 -27 -8.5t-29.5 -22.5t-27 -31.5t-19.5 -34.5q-4 -12 -7 -22.5t-4 -18.5z
M502 651l47 59h73l-3 -4.5t-22.5 -27.5t-60.5 -73q-3 -3 -8 -7.5t-10 -4.5h-65l-27 59l-46 -59h-73l86 105q4 3 8.5 7.5t8.5 4.5h66z" />
    <glyph glyph-name="FL00F6h" unicode="&#xf6;" horiz-adv-x="577" 
d="M244 257q-2 -19 2.5 -40.5t14.5 -39.5t23.5 -30t29.5 -12h52q9 0 24 8.5t31 22.5t29.5 31.5t21.5 34.5q7 13 9 22l3 10q2 10 2 9q0 10 0.5 19.5t0.5 20.5q0 16 -3 30.5t-10.5 26t-20 18.5t-30.5 7h-65q-12 0 -27 -8.5t-29.5 -22.5t-27 -31.5t-19.5 -34.5q-4 -12 -7 -22.5
t-4 -18.5zM638 287q-6 -48 -30 -99t-60 -93t-80.5 -68.5t-92.5 -26.5h-80q-49 0 -89.5 11t-68.5 38.5t-40 74.5t-4 119q6 48 29.5 99t58 93t76 68.5t83.5 26.5h106q49 0 88 -13.5t65 -42.5t37 -75t2 -112zM350 653q7 25 26 42t41 17t32 -17t2 -42q-7 -25 -27 -42t-42 -17
q-21 0 -30.5 17t-1.5 42zM596 653q-8 -25 -27 -42t-41 -17t-31.5 17t-2.5 42q8 25 27.5 42t40.5 17q22 0 32 -17t2 -42z" />
    <glyph glyph-name="FL00F7h" unicode="&#xf7;" horiz-adv-x="346" 
d="M71 195l115 135h241l-114 -135h-242zM252 417q8 25 26.5 42t40.5 17t32 -17t3 -42q-8 -25 -27.5 -42t-41.5 -17t-31.5 17t-1.5 42zM262 108q-7 -25 -26 -42t-41 -17t-32 17t-2 42q7 25 27 42t42 17q21 0 30.5 -17t1.5 -42z" />
    <glyph glyph-name="FL00F8h" unicode="&#xf8;" horiz-adv-x="577" 
d="M638 287q-6 -48 -30 -99t-60 -93t-80.5 -68.5t-92.5 -26.5h-80q-49 0 -89.5 11t-68.5 38.5t-40 74.5t-4 119q6 48 29.5 99t58 93t76 68.5t83.5 26.5h106q49 0 88 -13.5t65 -42.5t37 -75t2 -112zM486 273q1 25 0 54l-202 -180q13 -12 30 -12h52q9 0 24 8.5t31 22.5
t29.5 31.5t21.5 34.5q7 13 9 22l3 10q2 10 2 9zM244 257q-3 -21 2 -45l203 178q-17 5 -26 5h-65q-12 0 -27 -8.5t-29.5 -22.5t-27 -31.5t-19.5 -34.5q-4 -12 -7 -22.5t-4 -18.5z" />
    <glyph glyph-name="FL00F9h" unicode="&#xf9;" horiz-adv-x="546" 
d="M114 308l63 222h151q-28 -102 -43 -158.5t-22.5 -84.5t-9 -35.5t-1.5 -10.5q-5 -48 5.5 -77t40.5 -29h39q19 0 35.5 10t29 25t22 32t15.5 31l87 297h152l-72 -247q-20 -69 -40.5 -121.5t-47 -88.5t-61.5 -54.5t-83 -18.5h-93q-113 0 -160 44.5t-31 151.5q5 26 10.5 52
t13.5 60zM482 689l7 -22q0 -10 2 -20.5t-3 -24.5q-2 -9 -6 -16.5t-11 -11.5l-5 -4q-6 -2 -8 -2q-12 0 -24 10t-16 23l-6 23q-2 6 -3 12t1 13q9 26 31 42q16 8 22 8q9 0 13 -9.5t6 -20.5z" />
    <glyph glyph-name="FL00FAh" unicode="&#xfa;" horiz-adv-x="546" 
d="M114 308l63 222h151q-28 -102 -43 -158.5t-22.5 -84.5t-9 -35.5t-1.5 -10.5q-5 -48 5.5 -77t40.5 -29h39q19 0 35.5 10t29 25t22 32t15.5 31l87 297h152l-72 -247q-20 -69 -40.5 -121.5t-47 -88.5t-61.5 -54.5t-83 -18.5h-93q-113 0 -160 44.5t-31 151.5q5 26 10.5 52
t13.5 60zM435 667l19 22q9 11 18.5 20.5t18.5 9.5q8 0 18 -8q13 -16 5 -42q-2 -7 -6.5 -13t-9.5 -12l-19 -23q-11 -12 -29.5 -22.5t-29.5 -10.5q-7 0 -7 2l-3 4q-5 4 -4 11.5t3 16.5q4 14 11.5 24.5t14.5 20.5z" />
    <glyph glyph-name="FL00FBh" unicode="&#xfb;" horiz-adv-x="546" 
d="M114 308l63 222h151q-28 -102 -43 -158.5t-22.5 -84.5t-9 -35.5t-1.5 -10.5q-5 -48 5.5 -77t40.5 -29h39q19 0 35.5 10t29 25t22 32t15.5 31l87 297h152l-72 -247q-20 -69 -40.5 -121.5t-47 -88.5t-61.5 -54.5t-83 -18.5h-93q-113 0 -160 44.5t-31 151.5q5 26 10.5 52
t13.5 60zM450 653l-46 -59h-73l86 105q4 3 8.5 7.5t8.5 4.5h50q7 0 12.5 -8.5t8.5 -14.5l37 -94h-65z" />
    <glyph glyph-name="FL00FCh" unicode="&#xfc;" horiz-adv-x="546" 
d="M338 652q7 25 26.5 42t41.5 17q21 0 31 -17t2 -42q-7 -25 -26.5 -42t-41.5 -17t-31.5 17t-1.5 42zM114 308l63 222h151q-28 -102 -43 -158.5t-22.5 -84.5t-9 -35.5t-1.5 -10.5q-5 -48 5.5 -77t40.5 -29h39q19 0 35.5 10t29 25t22 32t15.5 31l87 297h152l-72 -247
q-20 -69 -40.5 -121.5t-47 -88.5t-61.5 -54.5t-83 -18.5h-93q-113 0 -160 44.5t-31 151.5q5 26 10.5 52t13.5 60zM584 652q-8 -25 -26.5 -42t-40.5 -17t-32 17t-3 42q8 25 27.5 42t41.5 17t31.5 -17t1.5 -42z" />
    <glyph glyph-name="FL00FDh" unicode="&#xfd;" horiz-adv-x="525" 
d="M259 252l-90 278h171l40 -125l114 125h171l-252 -278l-74 -252h-153zM427 667l19 22q9 11 18.5 20.5t18.5 9.5q8 0 18 -8q13 -16 5 -42q-2 -7 -6.5 -13t-9.5 -12l-19 -23q-11 -12 -29.5 -22.5t-29.5 -10.5q-7 0 -7 2l-3 4q-5 4 -4 11.5t3 16.5q4 14 11.5 24.5t14.5 20.5z
" />
    <glyph glyph-name="FL00FEh" unicode="&#xfe;" horiz-adv-x="544" 
d="M22 0l155 530h153l-28 -100h213q21 0 36 -15.5t24.5 -38t14.5 -48t6 -45.5q0 -42 -16.5 -77t-41 -60.5t-54.5 -39.5t-57 -14h-225l-26 -92h-154zM262 294l-44 -152l76 85h128q1 0 4 4.5t6 10.5t5.5 11.5t3.5 8.5l1 5v5q-3 5 -8.5 13.5t-7.5 8.5h-164z" />
    <glyph glyph-name="FL00FFh" unicode="&#xff;" horiz-adv-x="525" 
d="M259 252l-90 278h171l40 -125l114 125h171l-252 -278l-74 -252h-153zM331 652q8 25 27 42t41 17t31.5 -17t2.5 -42q-8 -25 -27 -42t-41 -17t-31.5 17t-2.5 42zM578 652q-8 -25 -27 -42t-41 -17q-21 0 -31.5 17t-2.5 42t27.5 42t41.5 17t31 -17t2 -42z" />
  </font>
</defs>
</svg>
